# OBJ generated by ONSHAPE BY PTC INC, 1.219 Units = meters
mtllib camera.mtl
g Simplified Zed Nano
v 0.00332183 0.00983794 0.0594964
v 0.0033792 0.010666 0.0596195
v 0.00347408 0.0114746 0.059823
v 0.00360535 0.0122542 0.0601045
v 0.00377146 0.0129956 0.0604607
v 0.00397048 0.0136901 0.0608875
v 0.00420007 0.0143297 0.0613798
v 0.00445754 0.0149068 0.061932
v 0.00473987 0.0154146 0.0625374
v 0.00504375 0.0158472 0.0631891
v 0.00536561 0.0161996 0.0638793
v 0.00570169 0.0164675 0.0646001
v 0.00604804 0.0166479 0.0653428
v 0.0064006 0.0167387 0.0660989
v 0.00675524 0.0167387 0.0668594
v 0.0071078 0.0166479 0.0676155
v 0.00745415 0.0164675 0.0683582
v 0.00779023 0.0161996 0.069079
v 0.00811209 0.0158472 0.0697692
v 0.00841597 0.0154146 0.0704209
v 0.0086983 0.0149068 0.0710263
v 0.00895577 0.0143297 0.0715785
v 0.00918536 0.0136901 0.0720708
v 0.00938438 0.0129956 0.0724976
v 0.00955049 0.0122542 0.0728539
v 0.00968176 0.0114746 0.0731354
v 0.00977664 0.010666 0.0733388
v 0.00983401 0.00983794 0.0734619
v 0.00985321 0.00900002 0.073503
v 0.00983401 0.0081621 0.0734619
v 0.00977664 0.007334 0.0733388
v 0.00968176 0.00652543 0.0731354
v 0.00955049 0.00574588 0.0728539
v 0.00938438 0.00500448 0.0724976
v 0.00918536 0.00430992 0.0720708
v 0.00895577 0.00367035 0.0715785
v 0.0086983 0.00309326 0.0710263
v 0.00841597 0.00258543 0.0704209
v 0.00811209 0.0021528 0.0697692
v 0.00779023 0.00180045 0.069079
v 0.00745415 0.00153251 0.0683582
v 0.0071078 0.00135211 0.0676155
v 0.00675524 0.00126139 0.0668594
v 0.0064006 0.00126139 0.0660989
v 0.00604804 0.00135211 0.0653428
v 0.00570169 0.00153251 0.0646001
v 0.00536561 0.00180045 0.0638793
v 0.00504375 0.0021528 0.0631891
v 0.00473987 0.00258543 0.0625374
v 0.00445754 0.00309326 0.061932
v 0.00420007 0.00367035 0.0613798
v 0.00397048 0.00430992 0.0608875
v 0.00377146 0.00500448 0.0604607
v 0.00360535 0.00574588 0.0601045
v 0.00347408 0.00652543 0.059823
v 0.0033792 0.007334 0.0596195
v 0.00332183 0.0081621 0.0594964
v 0.00330263 0.00900002 0.0594553
v 0.00657792 0.00900002 0.0664792
v 0.00468129 0.0081621 0.0588625
v 0.00466209 0.00900002 0.0588213
v 0.00473866 0.007334 0.0589856
v 0.00483354 0.00652543 0.059189
v 0.00496481 0.00574588 0.0594705
v 0.00513092 0.00500448 0.0598268
v 0.00532994 0.00430992 0.0602536
v 0.00555953 0.00367035 0.0607459
v 0.005817 0.00309326 0.0612981
v 0.00609933 0.00258543 0.0619035
v 0.00640321 0.0021528 0.0625552
v 0.00672507 0.00180045 0.0632454
v 0.00706115 0.00153251 0.0639661
v 0.0074075 0.00135211 0.0647089
v 0.00776006 0.00126139 0.065465
v 0.0081147 0.00126139 0.0662255
v 0.00846726 0.00135211 0.0669816
v 0.00881361 0.00153251 0.0677243
v 0.00914969 0.00180045 0.068445
v 0.00947156 0.0021528 0.0691353
v 0.00977543 0.00258543 0.0697869
v 0.0100578 0.00309326 0.0703924
v 0.0103152 0.00367035 0.0709445
v 0.0105448 0.00430992 0.0714369
v 0.0107438 0.00500448 0.0718637
v 0.01091 0.00574588 0.0722199
v 0.0110412 0.00652543 0.0725014
v 0.0111361 0.007334 0.0727049
v 0.0111935 0.0081621 0.0728279
v 0.0112127 0.00900002 0.0728691
v 0.0111935 0.00983794 0.0728279
v 0.0111361 0.010666 0.0727049
v 0.0110412 0.0114746 0.0725014
v 0.01091 0.0122542 0.0722199
v 0.0107438 0.0129956 0.0718637
v 0.0105448 0.0136901 0.0714369
v 0.0103152 0.0143297 0.0709445
v 0.0100578 0.0149068 0.0703924
v 0.00977543 0.0154146 0.0697869
v 0.00947156 0.0158472 0.0691353
v 0.00914969 0.0161996 0.068445
v 0.00881361 0.0164675 0.0677243
v 0.00846726 0.0166479 0.0669816
v 0.0081147 0.0167387 0.0662255
v 0.00776006 0.0167387 0.065465
v 0.0074075 0.0166479 0.0647089
v 0.00706115 0.0164675 0.0639661
v 0.00672507 0.0161996 0.0632454
v 0.00640321 0.0158472 0.0625552
v 0.00609933 0.0154146 0.0619035
v 0.005817 0.0149068 0.0612981
v 0.00555953 0.0143297 0.0607459
v 0.00532994 0.0136901 0.0602536
v 0.00513092 0.0129956 0.0598268
v 0.00496481 0.0122542 0.0594705
v 0.00483354 0.0114746 0.059189
v 0.00473866 0.010666 0.0589856
v 0.00468129 0.00983794 0.0588625
v 0.00336771 0.0168817 0.0560455
v 0.00346355 0.0169621 0.0562511
v 0.00327605 0.0167775 0.055849
v 0.00310936 0.016503 0.0554915
v 0.0031896 0.0166508 0.0556636
v 0.00793738 0.01795 0.0658452
v 0.00914969 -0.00180041 0.068445
v 0.00881361 -0.00153247 0.0677243
v 0.00297107 0.0161511 0.055195
v 0.00303624 0.0163358 0.0553347
v 0.0101337 0.0177165 0.0705552
v 0.0123123 0.0170179 0.0752273
v 0.0105448 -0.00430988 0.0714369
v 0.0103152 -0.00367031 0.0709445
v 0.00846726 -0.00135207 0.0669816
v 0.0081147 -0.00126135 0.0662255
v 0.00776006 -0.00126135 0.065465
v 0.00513092 -0.0129955 0.0598268
v 0.00278697 -0.0150443 0.0548001
v 0.00278144 -0.0148041 0.0547883
v 0.00278697 0.0150444 0.0548001
v 0.0028033 0.0152819 0.0548351
v 0.00356247 0.0170179 0.0564632
v 0.00574108 0.0177165 0.0611352
v 0.0124113 0.0169623 0.0754395
v 0.00640321 -0.00215276 0.0625552
v 0.00609933 -0.00258539 0.0619035
v 0.00947156 -0.00215276 0.0691353
v 0.0100578 -0.00309322 0.0703924
v 0.00706115 -0.00153247 0.0639661
v 0.00310936 -0.016503 0.0554915
v 0.00303624 -0.0163358 0.0553347
v 0.00327605 -0.0167775 0.055849
v 0.0031896 -0.0166508 0.0556636
v 0.00532994 -0.0136901 0.0602536
v 0.00346355 -0.0169621 0.0562511
v 0.0028033 -0.0152818 0.0548351
v 0.00286748 -0.0157377 0.0549728
v 0.00283024 -0.0155138 0.0548929
v 0.00286748 0.0157378 0.0549728
v 0.00291461 0.015951 0.0550739
v 0.00283024 0.0155139 0.0548929
v 0.00513092 -0.00500444 0.0598268
v 0.00496481 -0.00574584 0.0594705
v 0.00555953 -0.00367031 0.0607459
v 0.00532994 -0.00430988 0.0602536
v 0.005817 -0.00309322 0.0612981
v 0.00977543 -0.00258539 0.0697869
v 0.0074075 -0.00135207 0.0647089
v 0.00672507 -0.00180041 0.0632454
v 0.00336771 -0.0168816 0.0560455
v 0.00297107 -0.016151 0.055195
v 0.00291461 -0.0159509 0.0550739
v 0.00278144 0.0148041 0.0547883
v 0.0130879 0.0150444 0.0768905
v 0.0130933 0.0148041 0.0769022
v 0.00483354 -0.00652539 0.059189
v 0.00473866 -0.00733396 0.0589856
v 0.00555953 -0.0143297 0.0607459
v 0.00356247 -0.0170179 0.0564632
v 0.0127656 0.0165035 0.0761994
v 0.0128388 0.0163363 0.0763563
v 0.0125989 0.016778 0.0758418
v 0.0126853 0.0166513 0.0760273
v 0.0130716 0.015282 0.0768557
v 0.0130075 0.0157381 0.0767182
v 0.0130447 0.0155141 0.076798
v 0.01091 -0.00574584 0.0722199
v 0.00468129 -0.00816206 0.0588625
v 0.0101337 -0.0177165 0.0705552
v 0.00793738 -0.01795 0.0658452
v 0.00846726 -0.0166479 0.0669816
v 0.00574108 -0.0177164 0.0611352
v 0.005817 -0.0149067 0.0612981
v 0.00483354 -0.0114746 0.059189
v 0.00496481 -0.0122541 0.0594705
v 0.00468129 -0.0098379 0.0588625
v 0.00473866 -0.010666 0.0589856
v 0.0125071 0.016882 0.0756451
v 0.0129039 0.0161516 0.0764961
v 0.0129604 0.0159514 0.0766172
v 0.00881361 -0.0164675 0.0677243
v 0.00706115 -0.0164675 0.0639661
v 0.0074075 -0.0166479 0.0647089
v 0.00466209 -0.00899998 0.0588213
v 0.0130933 -0.0148041 0.0769022
v 0.0111935 -0.00816206 0.0728279
v 0.0111361 -0.00733396 0.0727049
v 0.0107438 -0.0129955 0.0718637
v 0.01091 -0.0122541 0.0722199
v 0.0081147 -0.0167386 0.0662255
v 0.00672507 -0.0161995 0.0632454
v 0.00609933 -0.0154146 0.0619035
v 0.0130447 -0.0155141 0.076798
v 0.0130075 -0.0157381 0.0767182
v 0.0130879 -0.0150444 0.0768905
v 0.0125071 -0.016882 0.0756451
v 0.0124113 -0.0169623 0.0754395
v 0.0126853 -0.0166513 0.0760273
v 0.0125989 -0.0167779 0.0758418
v 0.0128388 -0.0163363 0.0763563
v 0.0127656 -0.0165035 0.0761994
v 0.0105448 -0.0136901 0.0714369
v 0.0123123 -0.0170179 0.0752273
v 0.00977543 -0.0154146 0.0697869
v 0.0100578 -0.0149067 0.0703924
v 0.00914969 -0.0161995 0.068445
v 0.00776006 -0.0167386 0.065465
v 0.00640321 -0.0158472 0.0625552
v 0.0107438 -0.00500444 0.0718637
v 0.0110412 -0.00652539 0.0725014
v 0.0111935 -0.0098379 0.0728279
v 0.0112127 -0.00899998 0.0728691
v 0.0110412 -0.0114746 0.0725014
v 0.0129604 -0.0159514 0.0766172
v 0.0130716 -0.015282 0.0768557
v 0.0129039 -0.0161515 0.0764961
v 0.0103152 -0.0143297 0.0709445
v 0.00947156 -0.0158472 0.0691353
v 0.0111361 -0.010666 0.0727049
v 0.0149059 -0.0148041 0.0760569
v 0.0149059 0.0148041 0.0760569
v 0.0142239 -0.0169623 0.0745942
v 0.0141249 -0.0170179 0.074382
v 0.0143198 -0.016882 0.0747999
v 0.0144115 -0.0167779 0.0749966
v 0.014498 -0.0166513 0.075182
v 0.0145782 -0.0165035 0.0753542
v 0.0146514 -0.0163363 0.0755111
v 0.0147166 -0.0161515 0.0756508
v 0.014773 -0.0159514 0.0757719
v 0.0148201 -0.0157381 0.075873
v 0.0148574 -0.0155141 0.0759528
v 0.0148842 -0.015282 0.0760104
v 0.0149005 -0.0150444 0.0760453
v 0.0119463 -0.0177165 0.06971
v 0.00975 -0.01795 0.065
v 0.00755369 -0.0177164 0.06029
v 0.00537508 -0.0170179 0.055618
v 0.00459958 -0.0150443 0.0539549
v 0.00459405 -0.0148041 0.053943
v 0.00461591 -0.0152818 0.0539899
v 0.00464285 -0.0155138 0.0540477
v 0.0046801 -0.0157377 0.0541276
v 0.00472722 -0.0159509 0.0542286
v 0.00478369 -0.016151 0.0543497
v 0.00484886 -0.0163358 0.0544895
v 0.00492198 -0.016503 0.0546463
v 0.00500222 -0.0166508 0.0548183
v 0.00508866 -0.0167775 0.0550037
v 0.00518033 -0.0168816 0.0552003
v 0.00527617 -0.0169621 0.0554058
v 0.00459405 0.0148041 0.053943
v 0.00527617 0.0169621 0.0554058
v 0.00537508 0.0170179 0.055618
v 0.00518033 0.0168817 0.0552003
v 0.00508866 0.0167775 0.0550037
v 0.00500222 0.0166508 0.0548183
v 0.00492198 0.016503 0.0546463
v 0.00484886 0.0163358 0.0544895
v 0.00478369 0.0161511 0.0543497
v 0.00472722 0.015951 0.0542286
v 0.0046801 0.0157378 0.0541276
v 0.00464285 0.0155139 0.0540477
v 0.00461591 0.0152819 0.0539899
v 0.00459958 0.0150444 0.0539549
v 0.00755369 0.0177165 0.06029
v 0.00975 0.01795 0.065
v 0.0119463 0.0177165 0.06971
v 0.0141249 0.0170179 0.074382
v 0.0149005 0.0150444 0.0760453
v 0.0148842 0.015282 0.0760104
v 0.0148574 0.0155141 0.0759528
v 0.0148201 0.0157381 0.075873
v 0.014773 0.0159514 0.0757719
v 0.0147166 0.0161516 0.0756508
v 0.0146514 0.0163363 0.0755111
v 0.0145782 0.0165035 0.0753542
v 0.014498 0.0166513 0.075182
v 0.0144115 0.016778 0.0749966
v 0.0143198 0.016882 0.0747999
v 0.0142239 0.0169623 0.0745942
v 0.00330263 -0.00899998 0.0594553
v 0.00332183 -0.0098379 0.0594964
v 0.0033792 -0.010666 0.0596195
v 0.00347408 -0.0114746 0.059823
v 0.00360535 -0.0122541 0.0601045
v 0.00377146 -0.0129955 0.0604607
v 0.00397048 -0.0136901 0.0608875
v 0.00420007 -0.0143297 0.0613798
v 0.00445754 -0.0149067 0.061932
v 0.00473987 -0.0154146 0.0625374
v 0.00504375 -0.0158472 0.0631891
v 0.00536561 -0.0161995 0.0638793
v 0.00570169 -0.0164675 0.0646001
v 0.00604804 -0.0166479 0.0653428
v 0.0064006 -0.0167386 0.0660989
v 0.00675524 -0.0167386 0.0668594
v 0.0071078 -0.0166479 0.0676155
v 0.00745415 -0.0164675 0.0683582
v 0.00779023 -0.0161995 0.069079
v 0.00811209 -0.0158472 0.0697692
v 0.00841597 -0.0154146 0.0704209
v 0.0086983 -0.0149067 0.0710263
v 0.00895577 -0.0143297 0.0715785
v 0.00918536 -0.0136901 0.0720708
v 0.00938438 -0.0129955 0.0724976
v 0.00955049 -0.0122541 0.0728539
v 0.00968176 -0.0114746 0.0731354
v 0.00977664 -0.010666 0.0733388
v 0.00983401 -0.0098379 0.0734619
v 0.00985321 -0.00899998 0.073503
v 0.00983401 -0.00816206 0.0734619
v 0.00977664 -0.00733396 0.0733388
v 0.00968176 -0.00652539 0.0731354
v 0.00955049 -0.00574584 0.0728539
v 0.00938438 -0.00500444 0.0724976
v 0.00918536 -0.00430988 0.0720708
v 0.00895577 -0.00367031 0.0715785
v 0.0086983 -0.00309322 0.0710263
v 0.00841597 -0.00258539 0.0704209
v 0.00811209 -0.00215276 0.0697692
v 0.00779023 -0.00180041 0.069079
v 0.00745415 -0.00153247 0.0683582
v 0.0071078 -0.00135207 0.0676155
v 0.00675524 -0.00126135 0.0668594
v 0.0064006 -0.00126135 0.0660989
v 0.00604804 -0.00135207 0.0653428
v 0.00570169 -0.00153247 0.0646001
v 0.00536561 -0.00180041 0.0638793
v 0.00504375 -0.00215276 0.0631891
v 0.00473987 -0.00258539 0.0625374
v 0.00445754 -0.00309322 0.061932
v 0.00420007 -0.00367031 0.0613798
v 0.00397048 -0.00430988 0.0608875
v 0.00377146 -0.00500444 0.0604607
v 0.00360535 -0.00574584 0.0601045
v 0.00347408 -0.00652539 0.059823
v 0.0033792 -0.00733396 0.0596195
v 0.00332183 -0.00816206 0.0594964
v 0.00657792 -0.00899998 0.0664792
v 0.00452383 -0.0172292 0.0537924
v 0.0043999 -0.0170589 0.0535267
v 0.00438466 -0.0170142 0.053494
v 0.00443586 -0.0171358 0.0536038
v 0.00441703 -0.0170995 0.0535634
v 0.00450041 -0.0172141 0.0537422
v 0.00434175 -0.0167489 0.053402
v 0.00434048 -0.0166916 0.0533993
v 0.0151595 0.0166916 0.0766007
v 0.0151595 -0.0166916 0.0766007
v 0.00447778 -0.0171934 0.0536937
v 0.00437147 -0.016966 0.0534657
v 0.00436048 -0.0169148 0.0534421
v 0.00445618 -0.0171672 0.0536474
v 0.00434554 -0.0168057 0.0534101
v 0.0043518 -0.0168611 0.0534235
v 0.0151582 -0.0167489 0.076598
v 0.0151545 -0.0168057 0.0765899
v 0.0150641 -0.0171358 0.0763962
v 0.0150438 -0.0171672 0.0763526
v 0.0151001 -0.0170589 0.0764733
v 0.015083 -0.0170995 0.0764366
v 0.0151285 -0.016966 0.0765343
v 0.0151153 -0.0170142 0.076506
v 0.0151395 -0.0169148 0.0765578
v 0.0123779 -0.0182188 0.0706356
v 0.00975 -0.01855 0.065
v 0.00712205 -0.0182188 0.0593643
v 0.00434048 0.0166916 0.0533993
v 0.00712205 0.0182189 0.0593643
v 0.00975 0.01855 0.065
v 0.0123779 0.0182189 0.0706356
v 0.0149762 0.0172292 0.0762075
v 0.0151001 0.0170589 0.0764733
v 0.0151153 0.0170142 0.076506
v 0.0150641 0.0171358 0.0763962
v 0.015083 0.0170996 0.0764366
v 0.0151582 0.016749 0.076598
v 0.0151482 -0.0168611 0.0765765
v 0.0149996 -0.0172141 0.0762578
v 0.0149762 -0.0172292 0.0762075
v 0.00434554 0.0168057 0.0534101
v 0.0043518 0.0168612 0.0534235
v 0.00434175 0.016749 0.053402
v 0.00441703 0.0170996 0.0535634
v 0.00443586 0.0171358 0.0536038
v 0.00438466 0.0170142 0.053494
v 0.0043999 0.0170589 0.0535267
v 0.00436048 0.0169148 0.0534421
v 0.00450041 0.0172142 0.0537422
v 0.00452383 0.0172292 0.0537924
v 0.0151545 0.0168057 0.0765899
v 0.0150222 -0.0171934 0.0763063
v 0.00437147 0.016966 0.0534657
v 0.00447778 0.0171934 0.0536937
v 0.0149996 0.0172142 0.0762578
v 0.0150222 0.0171934 0.0763063
v 0.0151285 0.016966 0.0765343
v 0.0150438 0.0171672 0.0763526
v 0.0151482 0.0168612 0.0765765
v 0.00445618 0.0171672 0.0536474
v 0.0151395 0.0169148 0.0765578
v 0.0129335 -0.0196728 0.0777426
v 0.0130634 -0.0195894 0.0780212
v 0.0131889 -0.0194743 0.0782903
v 0.0133087 -0.019329 0.0785471
v 0.0134214 -0.0191549 0.0787888
v 0.0135258 -0.0189539 0.0790127
v 0.0136208 -0.0187283 0.0792164
v 0.0137053 -0.0184805 0.0793977
v 0.0137784 -0.0182132 0.0795545
v 0.0138394 -0.0179292 0.0796852
v 0.0138875 -0.0176318 0.0797884
v 0.0139223 -0.0173242 0.0798629
v 0.0139433 -0.0170096 0.079908
v 0.0139503 -0.0166916 0.079923
v 0.0139503 0.0166916 0.079923
v 0.00203491 -0.0196728 0.0543704
v 0.00474407 -0.0207047 0.0601803
v 0.00748423 -0.02105 0.0660565
v 0.0102244 -0.0207047 0.0719328
v -0.0131409 -0.0196728 0.0899014
v -0.013011 -0.0195894 0.0901799
v -0.0128855 -0.0194743 0.0904491
v -0.0127658 -0.019329 0.0907059
v -0.0126531 -0.0191549 0.0909475
v -0.0125487 -0.0189539 0.0911714
v -0.0124537 -0.0187283 0.0913751
v -0.0123692 -0.0184805 0.0915564
v -0.012296 -0.0182132 0.0917132
v -0.0122351 -0.0179292 0.091844
v -0.012187 -0.0176318 0.0919471
v -0.0121522 -0.0173242 0.0920217
v -0.0121312 -0.0170096 0.0920667
v -0.0121242 -0.0166916 0.0920818
v 0.0139433 0.0170096 0.079908
v 0.0139223 0.0173242 0.0798629
v 0.0138875 0.0176319 0.0797884
v 0.0138394 0.0179293 0.0796852
v 0.0137784 0.0182132 0.0795545
v 0.0137053 0.0184805 0.0793977
v 0.0136208 0.0187284 0.0792164
v 0.0135258 0.018954 0.0790127
v 0.0134214 0.0191549 0.0787888
v 0.0133087 0.019329 0.0785471
v 0.0131889 0.0194744 0.0782903
v 0.0130634 0.0195894 0.0780212
v 0.0129335 0.0196728 0.0777426
v -0.0121242 0.0166916 0.0920818
v 0.00101817 -0.0166916 0.05219
v 0.00102519 -0.0170096 0.0522051
v 0.0010462 -0.0173242 0.0522501
v 0.00108095 -0.0176318 0.0523247
v 0.00112906 -0.0179292 0.0524278
v 0.00119003 -0.0182132 0.0525586
v 0.00126317 -0.0184805 0.0527154
v 0.00134769 -0.0187283 0.0528967
v 0.00144267 -0.0189539 0.0531004
v 0.00154708 -0.0191549 0.0533243
v 0.00165977 -0.019329 0.0535659
v 0.00177952 -0.0194743 0.0538228
v 0.00190502 -0.0195894 0.0540919
v -0.0240396 -0.0196728 0.0665292
v -0.0213304 -0.0207047 0.072339
v -0.0185902 -0.02105 0.0782153
v -0.0158501 -0.0207047 0.0840915
v 0.0102244 0.0207047 0.0719328
v 0.00748423 0.02105 0.0660565
v 0.00474407 0.0207047 0.0601803
v 0.00203491 0.0196728 0.0543704
v -0.0121312 0.0170096 0.0920667
v -0.0121522 0.0173242 0.0920217
v -0.012187 0.0176319 0.0919471
v -0.0122351 0.0179293 0.091844
v -0.012296 0.0182132 0.0917132
v -0.0123692 0.0184805 0.0915564
v -0.0124537 0.0187284 0.0913751
v -0.0125487 0.018954 0.0911714
v -0.0126531 0.0191549 0.0909475
v -0.0127658 0.019329 0.0907059
v -0.0128855 0.0194744 0.0904491
v -0.013011 0.0195894 0.0901799
v -0.0131409 0.0196728 0.0899014
v 0.00101817 0.0166916 0.05219
v -0.0250563 -0.0166916 0.0643488
v -0.0250493 -0.0170096 0.0643638
v -0.0250283 -0.0173242 0.0644089
v -0.0249935 -0.0176318 0.0644834
v -0.0249454 -0.0179292 0.0645866
v -0.0248844 -0.0182132 0.0647173
v -0.0248113 -0.0184805 0.0648742
v -0.0247268 -0.0187283 0.0650554
v -0.0246318 -0.0189539 0.0652591
v -0.0245274 -0.0191549 0.065483
v -0.0244147 -0.019329 0.0657247
v -0.024295 -0.0194743 0.0659815
v -0.0241695 -0.0195894 0.0662506
v 0.00190502 0.0195894 0.0540919
v 0.00177952 0.0194744 0.0538228
v 0.00165977 0.019329 0.0535659
v 0.00154708 0.0191549 0.0533243
v 0.00144267 0.018954 0.0531004
v 0.00134769 0.0187284 0.0528967
v 0.00126317 0.0184805 0.0527154
v 0.00119003 0.0182132 0.0525586
v 0.00112906 0.0179293 0.0524278
v 0.00108095 0.0176319 0.0523247
v 0.0010462 0.0173242 0.0522501
v 0.00102519 0.0170096 0.0522051
v -0.0158501 0.0207047 0.0840915
v -0.0185902 0.02105 0.0782153
v -0.0213304 0.0207047 0.072339
v -0.0240396 0.0196728 0.0665292
v -0.0241695 0.0195894 0.0662506
v -0.024295 0.0194744 0.0659815
v -0.0244147 0.019329 0.0657247
v -0.0245274 0.0191549 0.065483
v -0.0246318 0.018954 0.0652591
v -0.0247268 0.0187284 0.0650554
v -0.0248113 0.0184805 0.0648742
v -0.0248844 0.0182132 0.0647173
v -0.0249454 0.0179293 0.0645866
v -0.0249935 0.0176319 0.0644834
v -0.0250283 0.0173242 0.0644089
v -0.0250493 0.0170096 0.0643638
v -0.0250563 0.0166916 0.0643488
v -0.0154465 -0.0166916 0.0908726
v -0.0154478 -0.0167489 0.0908698
v -0.0154516 -0.0168057 0.0908617
v -0.0154578 -0.0168611 0.0908483
v -0.0154665 -0.0169148 0.0908297
v -0.0154775 -0.016966 0.0908061
v -0.0154907 -0.0170142 0.0907778
v -0.0155059 -0.0170589 0.0907451
v -0.0155231 -0.0170995 0.0907084
v -0.0155419 -0.0171358 0.090668
v -0.0155622 -0.0171672 0.0906244
v -0.0155838 -0.0171934 0.0905781
v -0.0156064 -0.0172141 0.0905296
v -0.0156299 -0.0172292 0.0904794
v -0.0260822 -0.0172292 0.0680643
v -0.023484 -0.0182188 0.0736362
v -0.020856 -0.01855 0.0792718
v -0.0182281 -0.0182188 0.0849075
v -0.0261056 -0.0172141 0.068014
v -0.0261282 -0.0171934 0.0679655
v -0.0261498 -0.0171672 0.0679192
v -0.023484 0.0182189 0.0736362
v -0.0156299 0.0172292 0.0904794
v -0.0182281 0.0182189 0.0849075
v -0.026189 -0.0170995 0.0678352
v -0.0261702 -0.0171358 0.0678756
v -0.020856 0.01855 0.0792718
v -0.0155419 0.0171358 0.090668
v -0.0262605 0.0168057 0.0676819
v -0.0262643 0.016749 0.0676738
v -0.0260822 0.0172292 0.0680643
v -0.0156064 0.0172142 0.0905296
v -0.0262214 -0.0170142 0.0677658
v -0.0262061 -0.0170589 0.0677985
v -0.0262542 0.0168612 0.0676953
v -0.0262643 -0.0167489 0.0676738
v -0.0262605 -0.0168057 0.0676819
v -0.0262455 0.0169148 0.067714
v -0.0261282 0.0171934 0.0679655
v -0.0261498 0.0171672 0.0679192
v -0.0261056 0.0172142 0.068014
v -0.0262655 -0.0166916 0.0676711
v -0.0262455 -0.0169148 0.067714
v -0.0262345 -0.016966 0.0677375
v -0.0262542 -0.0168611 0.0676953
v -0.0262345 0.016966 0.0677375
v -0.0262061 0.0170589 0.0677985
v -0.0262214 0.0170142 0.0677658
v -0.0261702 0.0171358 0.0678756
v -0.026189 0.0170996 0.0678352
v -0.0155838 0.0171934 0.0905781
v -0.0155622 0.0171672 0.0906244
v -0.0262655 0.0166916 0.0676711
v -0.0154775 0.016966 0.0908061
v -0.0154907 0.0170142 0.0907778
v -0.0154578 0.0168612 0.0908483
v -0.0154665 0.0169148 0.0908297
v -0.0154478 0.016749 0.0908698
v -0.0154516 0.0168057 0.0908617
v -0.0155059 0.0170589 0.0907451
v -0.0155231 0.0170996 0.0907084
v -0.0154465 0.0166916 0.0908726
vn 0.906308 0 -0.422618
vn 0.420141 0.108119 0.900995
vn 0.422618 2.44929e-16 0.906308
vn 0.412738 0.21497 0.885119
vn 0.420141 0.108119 0.900995
vn 0.400496 0.319302 0.858865
vn 0.412738 0.21497 0.885119
vn 0.383558 0.419889 0.822543
vn 0.400496 0.319302 0.858865
vn 0.362123 0.515554 0.776576
vn 0.383558 0.419889 0.822543
vn 0.336443 0.605174 0.721505
vn 0.362123 0.515554 0.776576
vn 0.306819 0.687699 0.657975
vn 0.336443 0.605174 0.721505
vn 0.273597 0.762162 0.586731
vn 0.306819 0.687699 0.657975
vn 0.237168 0.827689 0.508608
vn 0.273597 0.762162 0.586731
vn 0.197958 0.883512 0.424522
vn 0.237168 0.827689 0.508608
vn 0.156427 0.928977 0.335459
vn 0.197958 0.883512 0.424522
vn 0.113062 0.96355 0.242463
vn 0.156427 0.928977 0.335459
vn 0.068372 0.986827 0.146624
vn 0.113062 0.96355 0.242463
vn 0.0228801 0.998533 0.0490665
vn 0.068372 0.986827 0.146624
vn -0.0228801 0.998533 -0.0490665
vn 0.0228801 0.998533 0.0490665
vn -0.068372 0.986827 -0.146624
vn -0.0228801 0.998533 -0.0490665
vn -0.113062 0.96355 -0.242463
vn -0.068372 0.986827 -0.146624
vn -0.156427 0.928977 -0.335459
vn -0.113062 0.96355 -0.242463
vn -0.197958 0.883512 -0.424522
vn -0.156427 0.928977 -0.335459
vn -0.237168 0.827689 -0.508608
vn -0.197958 0.883512 -0.424522
vn -0.273597 0.762162 -0.586731
vn -0.237168 0.827689 -0.508608
vn -0.306819 0.687699 -0.657975
vn -0.273597 0.762162 -0.586731
vn -0.336443 0.605174 -0.721505
vn -0.306819 0.687699 -0.657975
vn -0.362123 0.515554 -0.776576
vn -0.336443 0.605174 -0.721505
vn -0.383558 0.419889 -0.822543
vn -0.362123 0.515554 -0.776576
vn -0.400496 0.319302 -0.858865
vn -0.383558 0.419889 -0.822543
vn -0.412738 0.21497 -0.885119
vn -0.400496 0.319302 -0.858865
vn -0.420141 0.108119 -0.900995
vn -0.412738 0.21497 -0.885119
vn -0.422618 -1.22465e-16 -0.906308
vn -0.420141 0.108119 -0.900995
vn -0.420141 -0.108119 -0.900995
vn -0.422618 -1.22465e-16 -0.906308
vn -0.412738 -0.21497 -0.885119
vn -0.420141 -0.108119 -0.900995
vn -0.400496 -0.319302 -0.858865
vn -0.412738 -0.21497 -0.885119
vn -0.383558 -0.419889 -0.822543
vn -0.400496 -0.319302 -0.858865
vn -0.362123 -0.515554 -0.776576
vn -0.383558 -0.419889 -0.822543
vn -0.336443 -0.605174 -0.721505
vn -0.362123 -0.515554 -0.776576
vn -0.306819 -0.687699 -0.657975
vn -0.336443 -0.605174 -0.721505
vn -0.273597 -0.762162 -0.586731
vn -0.306819 -0.687699 -0.657975
vn -0.237168 -0.827689 -0.508608
vn -0.273597 -0.762162 -0.586731
vn -0.197958 -0.883512 -0.424522
vn -0.237168 -0.827689 -0.508608
vn -0.156427 -0.928977 -0.335459
vn -0.197958 -0.883512 -0.424522
vn -0.113062 -0.96355 -0.242463
vn -0.156427 -0.928977 -0.335459
vn -0.068372 -0.986827 -0.146624
vn -0.113062 -0.96355 -0.242463
vn -0.0228801 -0.998533 -0.0490665
vn -0.068372 -0.986827 -0.146624
vn 0.0228801 -0.998533 0.0490665
vn -0.0228801 -0.998533 -0.0490665
vn 0.068372 -0.986827 0.146624
vn 0.0228801 -0.998533 0.0490665
vn 0.113062 -0.96355 0.242463
vn 0.068372 -0.986827 0.146624
vn 0.156427 -0.928977 0.335459
vn 0.113062 -0.96355 0.242463
vn 0.197958 -0.883512 0.424522
vn 0.156427 -0.928977 0.335459
vn 0.237168 -0.827689 0.508608
vn 0.197958 -0.883512 0.424522
vn 0.273597 -0.762162 0.586731
vn 0.237168 -0.827689 0.508608
vn 0.306819 -0.687699 0.657975
vn 0.273597 -0.762162 0.586731
vn 0.336443 -0.605174 0.721505
vn 0.306819 -0.687699 0.657975
vn 0.362123 -0.515554 0.776576
vn 0.336443 -0.605174 0.721505
vn 0.383558 -0.419889 0.822543
vn 0.362123 -0.515554 0.776576
vn 0.400496 -0.319302 0.858865
vn 0.383558 -0.419889 0.822543
vn 0.412738 -0.21497 0.885119
vn 0.400496 -0.319302 0.858865
vn 0.420141 -0.108119 0.900995
vn 0.412738 -0.21497 0.885119
vn 0.906308 0 -0.422618
vn -0.422618 0 -0.906308
vn -0.119477 0.959206 -0.256219
vn -0.0754946 0.983915 -0.161899
vn -0.162092 0.923523 -0.347608
vn -0.119477 0.959206 -0.256219
vn -0.202853 0.877273 -0.43502
vn -0.162092 0.923523 -0.347608
vn -0.241293 0.820986 -0.517455
vn -0.202853 0.877273 -0.43502
vn -0.276972 0.755306 -0.593969
vn -0.241293 0.820986 -0.517455
vn -0.309482 0.680984 -0.663687
vn -0.276972 0.755306 -0.593969
vn -0.338452 0.598871 -0.725812
vn -0.309482 0.680984 -0.663687
vn -0.363549 0.509906 -0.779633
vn -0.338452 0.598871 -0.725812
vn -0.384486 0.415107 -0.824534
vn -0.363549 0.509906 -0.779633
vn -0.401025 0.315559 -0.860001
vn -0.384486 0.415107 -0.824534
vn -0.412975 0.2124 -0.885628
vn -0.401025 0.315559 -0.860001
vn -0.420201 0.106811 -0.901123
vn -0.412975 0.2124 -0.885628
vn -0.422618 -1.22465e-16 -0.906308
vn -0.420201 0.106811 -0.901123
vn -0.0379 0.995971 -0.0812769
vn -7.76337e-17 1 -1.66486e-16
vn -0.0754946 0.983915 -0.161899
vn -0.0379 0.995971 -0.0812769
vn 0.0379 0.995971 0.0812769
vn 0.0754865 0.983919 0.161881
vn 8.30999e-06 1 1.78208e-05
vn 0.0379 0.995971 0.0812769
vn 0.420164 0.107625 0.901044
vn 0.422618 0.000967316 0.906307
vn 0.412915 0.213054 0.885499
vn 0.420164 0.107625 0.901044
vn 0.400956 0.316053 0.859852
vn 0.412915 0.213054 0.885499
vn 0.384421 0.415446 0.824394
vn 0.400956 0.316053 0.859852
vn 0.363501 0.510098 0.77953
vn 0.384421 0.415446 0.824394
vn 0.338433 0.598931 0.725772
vn 0.363501 0.510098 0.77953
vn 0.309504 0.68093 0.663733
vn 0.338433 0.598931 0.725772
vn 0.277043 0.75516 0.594122
vn 0.309504 0.68093 0.663733
vn 0.241422 0.820774 0.517731
vn 0.277043 0.75516 0.594122
vn 0.203046 0.877023 0.435434
vn 0.241422 0.820774 0.517731
vn 0.162354 0.923266 0.348169
vn 0.203046 0.877023 0.435434
vn 0.119809 0.958975 0.256931
vn 0.162354 0.923266 0.348169
vn 0.0758968 0.983742 0.162761
vn 0.119809 0.958975 0.256931
vn 0.422618 7.61005e-16 0.906308
vn 0.119809 -0.958975 0.256931
vn 0.0758968 -0.983742 0.162761
vn 0.162354 -0.923266 0.348169
vn 0.119809 -0.958975 0.256931
vn 0.203046 -0.877023 0.435434
vn 0.162354 -0.923266 0.348169
vn 0.241422 -0.820774 0.517731
vn 0.203046 -0.877023 0.435434
vn 0.277043 -0.75516 0.594122
vn 0.241422 -0.820774 0.517731
vn 0.309504 -0.68093 0.663733
vn 0.277043 -0.75516 0.594122
vn 0.338433 -0.598931 0.725772
vn 0.309504 -0.68093 0.663733
vn 0.363501 -0.510098 0.77953
vn 0.338433 -0.598931 0.725772
vn 0.384421 -0.415446 0.824394
vn 0.363501 -0.510098 0.77953
vn 0.400956 -0.316053 0.859852
vn 0.384421 -0.415446 0.824394
vn 0.412915 -0.213054 0.885499
vn 0.400956 -0.316053 0.859852
vn 0.420164 -0.107625 0.901044
vn 0.412915 -0.213054 0.885499
vn 0.422618 -0.000967316 0.906307
vn 0.420164 -0.107625 0.901044
vn 0.0379 -0.995971 0.0812769
vn 8.30999e-06 -1 1.78208e-05
vn 0.0754865 -0.983919 0.161881
vn 0.0379 -0.995971 0.0812769
vn -0.0379 -0.995971 -0.0812769
vn -0.0754946 -0.983915 -0.161899
vn 8.70439e-16 -1 1.86666e-15
vn -0.0379 -0.995971 -0.0812769
vn -0.420201 -0.106811 -0.901123
vn -0.422618 -1.22465e-16 -0.906308
vn -0.412975 -0.2124 -0.885628
vn -0.420201 -0.106811 -0.901123
vn -0.401025 -0.315559 -0.860001
vn -0.412975 -0.2124 -0.885628
vn -0.384486 -0.415107 -0.824534
vn -0.401025 -0.315559 -0.860001
vn -0.363549 -0.509906 -0.779633
vn -0.384486 -0.415107 -0.824534
vn -0.338452 -0.598871 -0.725812
vn -0.363549 -0.509906 -0.779633
vn -0.309482 -0.680984 -0.663687
vn -0.338452 -0.598871 -0.725812
vn -0.276972 -0.755306 -0.593969
vn -0.309482 -0.680984 -0.663687
vn -0.241293 -0.820986 -0.517455
vn -0.276972 -0.755306 -0.593969
vn -0.202853 -0.877273 -0.43502
vn -0.241293 -0.820986 -0.517455
vn -0.162092 -0.923523 -0.347608
vn -0.202853 -0.877273 -0.43502
vn -0.119477 -0.959206 -0.256219
vn -0.162092 -0.923523 -0.347608
vn -0.0754946 -0.983915 -0.161899
vn -0.119477 -0.959206 -0.256219
vn 0.420141 0.108119 0.900995
vn 0.422618 2.44929e-16 0.906308
vn 0.412738 0.21497 0.885119
vn 0.420141 0.108119 0.900995
vn 0.400496 0.319302 0.858865
vn 0.412738 0.21497 0.885119
vn 0.383558 0.419889 0.822543
vn 0.400496 0.319302 0.858865
vn 0.362123 0.515554 0.776576
vn 0.383558 0.419889 0.822543
vn 0.336443 0.605174 0.721505
vn 0.362123 0.515554 0.776576
vn 0.306819 0.687699 0.657975
vn 0.336443 0.605174 0.721505
vn 0.273597 0.762162 0.586731
vn 0.306819 0.687699 0.657975
vn 0.237168 0.827689 0.508608
vn 0.273597 0.762162 0.586731
vn 0.197958 0.883512 0.424522
vn 0.237168 0.827689 0.508608
vn 0.156427 0.928977 0.335459
vn 0.197958 0.883512 0.424522
vn 0.113062 0.96355 0.242463
vn 0.156427 0.928977 0.335459
vn 0.068372 0.986827 0.146624
vn 0.113062 0.96355 0.242463
vn 0.0228801 0.998533 0.0490665
vn 0.068372 0.986827 0.146624
vn -0.0228801 0.998533 -0.0490665
vn 0.0228801 0.998533 0.0490665
vn -0.068372 0.986827 -0.146624
vn -0.0228801 0.998533 -0.0490665
vn -0.113062 0.96355 -0.242463
vn -0.068372 0.986827 -0.146624
vn -0.156427 0.928977 -0.335459
vn -0.113062 0.96355 -0.242463
vn -0.197958 0.883512 -0.424522
vn -0.156427 0.928977 -0.335459
vn -0.237168 0.827689 -0.508608
vn -0.197958 0.883512 -0.424522
vn -0.273597 0.762162 -0.586731
vn -0.237168 0.827689 -0.508608
vn -0.306819 0.687699 -0.657975
vn -0.273597 0.762162 -0.586731
vn -0.336443 0.605174 -0.721505
vn -0.306819 0.687699 -0.657975
vn -0.362123 0.515554 -0.776576
vn -0.336443 0.605174 -0.721505
vn -0.383558 0.419889 -0.822543
vn -0.362123 0.515554 -0.776576
vn -0.400496 0.319302 -0.858865
vn -0.383558 0.419889 -0.822543
vn -0.412738 0.21497 -0.885119
vn -0.400496 0.319302 -0.858865
vn -0.420141 0.108119 -0.900995
vn -0.412738 0.21497 -0.885119
vn -0.422618 -1.22465e-16 -0.906308
vn -0.420141 0.108119 -0.900995
vn -0.420141 -0.108119 -0.900995
vn -0.422618 -1.22465e-16 -0.906308
vn -0.412738 -0.21497 -0.885119
vn -0.420141 -0.108119 -0.900995
vn -0.400496 -0.319302 -0.858865
vn -0.412738 -0.21497 -0.885119
vn -0.383558 -0.419889 -0.822543
vn -0.400496 -0.319302 -0.858865
vn -0.362123 -0.515554 -0.776576
vn -0.383558 -0.419889 -0.822543
vn -0.336443 -0.605174 -0.721505
vn -0.362123 -0.515554 -0.776576
vn -0.306819 -0.687699 -0.657975
vn -0.336443 -0.605174 -0.721505
vn -0.273597 -0.762162 -0.586731
vn -0.306819 -0.687699 -0.657975
vn -0.237168 -0.827689 -0.508608
vn -0.273597 -0.762162 -0.586731
vn -0.197958 -0.883512 -0.424522
vn -0.237168 -0.827689 -0.508608
vn -0.156427 -0.928977 -0.335459
vn -0.197958 -0.883512 -0.424522
vn -0.113062 -0.96355 -0.242463
vn -0.156427 -0.928977 -0.335459
vn -0.068372 -0.986827 -0.146624
vn -0.113062 -0.96355 -0.242463
vn -0.0228801 -0.998533 -0.0490665
vn -0.068372 -0.986827 -0.146624
vn 0.0228801 -0.998533 0.0490665
vn -0.0228801 -0.998533 -0.0490665
vn 0.068372 -0.986827 0.146624
vn 0.0228801 -0.998533 0.0490665
vn 0.113062 -0.96355 0.242463
vn 0.068372 -0.986827 0.146624
vn 0.156427 -0.928977 0.335459
vn 0.113062 -0.96355 0.242463
vn 0.197958 -0.883512 0.424522
vn 0.156427 -0.928977 0.335459
vn 0.237168 -0.827689 0.508608
vn 0.197958 -0.883512 0.424522
vn 0.273597 -0.762162 0.586731
vn 0.237168 -0.827689 0.508608
vn 0.306819 -0.687699 0.657975
vn 0.273597 -0.762162 0.586731
vn 0.336443 -0.605174 0.721505
vn 0.306819 -0.687699 0.657975
vn 0.362123 -0.515554 0.776576
vn 0.336443 -0.605174 0.721505
vn 0.383558 -0.419889 0.822543
vn 0.362123 -0.515554 0.776576
vn 0.400496 -0.319302 0.858865
vn 0.383558 -0.419889 0.822543
vn 0.412738 -0.21497 0.885119
vn 0.400496 -0.319302 0.858865
vn 0.420141 -0.108119 0.900995
vn 0.412738 -0.21497 0.885119
vn 0.906308 0 -0.422618
vn 0.703973 -0.691155 -0.163483
vn 0.734086 -0.671816 -0.0989057
vn 0.763182 -0.645151 -0.0365081
vn 0.790945 -0.611454 0.0230296
vn 0.817071 -0.57109 0.0790583
vn 0.841277 -0.5245 0.130967
vn 0.863297 -0.472192 0.17819
vn 0.882893 -0.414737 0.220213
vn 0.89985 -0.352759 0.256577
vn 0.913983 -0.286936 0.286885
vn 0.925138 -0.217985 0.310808
vn 0.933195 -0.146657 0.328085
vn 0.938064 -0.0737305 0.338527
vn 0.939693 -3.55271e-15 0.34202
vn 0.57774 -0.691155 -0.43419
vn 0.609119 -0.703108 -0.366898
vn 0.640856 -0.707107 -0.298836
vn 0.672594 -0.703108 -0.230775
vn 0.703973 -0.691155 -0.163483
vn 0.0892599 -0.977441 0.191418
vn 0.131846 -0.950091 0.282745
vn 0.172995 -0.912382 0.370988
vn 0.212257 -0.864726 0.455187
vn 0.249206 -0.807643 0.534424
vn 0.283438 -0.741756 0.607834
vn 0.314579 -0.667781 0.674617
vn 0.342291 -0.586526 0.734046
vn 0.366272 -0.498877 0.785472
vn 0.386259 -0.405789 0.828335
vn 0.402035 -0.308277 0.862167
vn 0.413429 -0.207405 0.8866
vn 0.420315 -0.104271 0.901367
vn 0.422618 -2.44929e-16 0.906308
vn 0.939693 1.63551e-14 0.34202
vn 0.938064 0.0737305 0.338527
vn 0.933195 0.146657 0.328085
vn 0.925138 0.217985 0.310808
vn 0.913983 0.286936 0.286885
vn 0.89985 0.352759 0.256577
vn 0.882893 0.414737 0.220213
vn 0.863297 0.472192 0.17819
vn 0.841277 0.5245 0.130967
vn 0.817071 0.57109 0.0790583
vn 0.790945 0.611454 0.0230296
vn 0.763182 0.645151 -0.0365081
vn 0.734086 0.671816 -0.0989057
vn 0.703973 0.691155 -0.163483
vn 0.422618 0 0.906308
vn 0.34202 8.65956e-17 -0.939693
vn 0.343649 -0.0737305 -0.936199
vn 0.348518 -0.146657 -0.925757
vn 0.356574 -0.217985 -0.908481
vn 0.36773 -0.286936 -0.884558
vn 0.381863 -0.352759 -0.854249
vn 0.39882 -0.414737 -0.817885
vn 0.418415 -0.472192 -0.775863
vn 0.440436 -0.5245 -0.72864
vn 0.464641 -0.57109 -0.676731
vn 0.490768 -0.611454 -0.620702
vn 0.518531 -0.645151 -0.561164
vn 0.547627 -0.671816 -0.498767
vn 0.57774 -0.691155 -0.43419
vn -0.0892599 -0.977441 -0.191418
vn -0.0448838 -0.994344 -0.0962536
vn -7.76337e-17 -1 -1.66486e-16
vn 0.0448838 -0.994344 0.0962536
vn 0.0892599 -0.977441 0.191418
vn 0.703973 0.691155 -0.163483
vn 0.672594 0.703108 -0.230775
vn 0.640856 0.707107 -0.298836
vn 0.609119 0.703108 -0.366898
vn 0.57774 0.691155 -0.43419
vn 0.422618 1.70629e-14 0.906308
vn 0.420315 0.104271 0.901367
vn 0.413429 0.207405 0.8866
vn 0.402035 0.308277 0.862167
vn 0.386259 0.405789 0.828335
vn 0.366272 0.498877 0.785472
vn 0.342291 0.586526 0.734046
vn 0.314579 0.667781 0.674617
vn 0.283438 0.741756 0.607834
vn 0.249206 0.807643 0.534424
vn 0.212257 0.864726 0.455187
vn 0.172995 0.912382 0.370988
vn 0.131846 0.950091 0.282745
vn 0.0892599 0.977441 0.191418
vn 0.34202 0 -0.939693
vn -0.422618 1.22465e-16 -0.906308
vn -0.420315 -0.104271 -0.901367
vn -0.413429 -0.207405 -0.8866
vn -0.402035 -0.308277 -0.862167
vn -0.386259 -0.405789 -0.828335
vn -0.366272 -0.498877 -0.785472
vn -0.342291 -0.586526 -0.734046
vn -0.314579 -0.667781 -0.674617
vn -0.283438 -0.741756 -0.607834
vn -0.249206 -0.807643 -0.534424
vn -0.212257 -0.864726 -0.455187
vn -0.172995 -0.912382 -0.370988
vn -0.131846 -0.950091 -0.282745
vn -0.0892599 -0.977441 -0.191418
vn 0.57774 0.691155 -0.43419
vn 0.547627 0.671816 -0.498767
vn 0.518531 0.645151 -0.561164
vn 0.490768 0.611454 -0.620702
vn 0.464641 0.57109 -0.676731
vn 0.440436 0.5245 -0.72864
vn 0.418415 0.472192 -0.775863
vn 0.39882 0.414737 -0.817885
vn 0.381863 0.352759 -0.854249
vn 0.36773 0.286936 -0.884558
vn 0.356574 0.217985 -0.908481
vn 0.348518 0.146657 -0.925757
vn 0.343649 0.0737305 -0.936199
vn 0.34202 1.02696e-15 -0.939693
vn 0.0892599 0.977441 0.191418
vn 0.0448838 0.994344 0.0962536
vn 2.13558e-16 1 4.57977e-16
vn -0.0448838 0.994344 -0.0962536
vn -0.0892599 0.977441 -0.191418
vn -0.131846 0.950091 -0.282745
vn -0.172995 0.912382 -0.370988
vn -0.212257 0.864726 -0.455187
vn -0.249206 0.807643 -0.534424
vn -0.283438 0.741756 -0.607834
vn -0.314579 0.667781 -0.674617
vn -0.342291 0.586526 -0.734046
vn -0.366272 0.498877 -0.785472
vn -0.386259 0.405789 -0.828335
vn -0.402035 0.308277 -0.862167
vn -0.413429 0.207405 -0.8866
vn -0.420315 0.104271 -0.901367
vn -0.422618 1.22465e-16 -0.906308
vn -0.34202 8.65956e-17 0.939693
vn -0.343649 -0.0737305 0.936199
vn -0.348518 -0.146657 0.925757
vn -0.356574 -0.217985 0.908481
vn -0.36773 -0.286936 0.884558
vn -0.381863 -0.352759 0.854249
vn -0.39882 -0.414737 0.817885
vn -0.418415 -0.472192 0.775863
vn -0.440436 -0.5245 0.72864
vn -0.464641 -0.57109 0.676731
vn -0.490768 -0.611454 0.620702
vn -0.518531 -0.645151 0.561164
vn -0.547627 -0.671816 0.498767
vn -0.57774 -0.691155 0.43419
vn -0.906308 0 0.422618
vn -0.34202 0 0.939693
vn -0.57774 -0.691155 0.43419
vn -0.609119 -0.703108 0.366898
vn -0.640856 -0.707107 0.298836
vn -0.672594 -0.703108 0.230775
vn -0.703973 -0.691155 0.163483
vn -0.57774 0.691155 0.43419
vn -0.547627 0.671816 0.498767
vn -0.518531 0.645151 0.561164
vn -0.490768 0.611454 0.620702
vn -0.464641 0.57109 0.676731
vn -0.440436 0.5245 0.72864
vn -0.418415 0.472192 0.775863
vn -0.39882 0.414737 0.817885
vn -0.381863 0.352759 0.854249
vn -0.36773 0.286936 0.884558
vn -0.356574 0.217985 0.908481
vn -0.348518 0.146657 0.925757
vn -0.343649 0.0737305 0.936199
vn -0.34202 1.16296e-14 0.939693
vn -0.703973 -0.691155 0.163483
vn -0.734086 -0.671816 0.0989057
vn -0.763182 -0.645151 0.0365081
vn -0.790945 -0.611454 -0.0230296
vn -0.817071 -0.57109 -0.0790583
vn -0.841277 -0.5245 -0.130967
vn -0.863297 -0.472192 -0.17819
vn -0.882893 -0.414737 -0.220213
vn -0.89985 -0.352759 -0.256577
vn -0.913983 -0.286936 -0.286885
vn -0.925138 -0.217985 -0.310808
vn -0.933195 -0.146657 -0.328085
vn -0.938064 -0.0737305 -0.338527
vn -0.939693 2.41474e-15 -0.34202
vn -0.703973 0.691155 0.163483
vn -0.672594 0.703108 0.230775
vn -0.640856 0.707107 0.298836
vn -0.609119 0.703108 0.366898
vn -0.57774 0.691155 0.43419
vn -0.939693 0 -0.34202
vn -0.938064 0.0737305 -0.338527
vn -0.933195 0.146657 -0.328085
vn -0.925138 0.217985 -0.310808
vn -0.913983 0.286936 -0.286885
vn -0.89985 0.352759 -0.256577
vn -0.882893 0.414737 -0.220213
vn -0.863297 0.472192 -0.17819
vn -0.841277 0.5245 -0.130967
vn -0.817071 0.57109 -0.0790583
vn -0.790945 0.611454 -0.0230296
vn -0.763182 0.645151 0.0365081
vn -0.734086 0.671816 0.0989057
vn -0.703973 0.691155 0.163483
usemtl 0.262745_0.282353_0.301961_0.000000_0.000000
f 59//1 1//1 2//1
f 2//1 3//1 59//1
f 3//1 4//1 59//1
f 4//1 5//1 59//1
f 5//1 6//1 59//1
f 6//1 7//1 59//1
f 7//1 8//1 59//1
f 8//1 9//1 59//1
f 9//1 10//1 59//1
f 10//1 11//1 59//1
f 11//1 12//1 59//1
f 12//1 13//1 59//1
f 13//1 14//1 59//1
f 14//1 15//1 59//1
f 15//1 16//1 59//1
f 16//1 17//1 59//1
f 17//1 18//1 59//1
f 18//1 19//1 59//1
f 19//1 20//1 59//1
f 20//1 21//1 59//1
f 21//1 22//1 59//1
f 22//1 23//1 59//1
f 23//1 24//1 59//1
f 24//1 25//1 59//1
f 25//1 26//1 59//1
f 26//1 27//1 59//1
f 27//1 28//1 59//1
f 28//1 29//1 59//1
f 29//1 30//1 59//1
f 30//1 31//1 59//1
f 31//1 32//1 59//1
f 32//1 33//1 59//1
f 33//1 34//1 59//1
f 34//1 35//1 59//1
f 35//1 36//1 59//1
f 36//1 37//1 59//1
f 37//1 38//1 59//1
f 38//1 39//1 59//1
f 39//1 40//1 59//1
f 40//1 41//1 59//1
f 41//1 42//1 59//1
f 42//1 43//1 59//1
f 43//1 44//1 59//1
f 44//1 45//1 59//1
f 45//1 46//1 59//1
f 46//1 47//1 59//1
f 47//1 48//1 59//1
f 48//1 49//1 59//1
f 49//1 50//1 59//1
f 50//1 51//1 59//1
f 51//1 52//1 59//1
f 52//1 53//1 59//1
f 53//1 54//1 59//1
f 54//1 55//1 59//1
f 55//1 56//1 59//1
f 56//1 57//1 59//1
f 57//1 58//1 59//1
f 58//1 1//1 59//1
f 60//2 61//3 58//3
f 62//4 60//2 57//5
f 63//6 62//4 56//7
f 64//8 63//6 55//9
f 65//10 64//8 54//11
f 66//12 65//10 53//13
f 67//14 66//12 52//15
f 68//16 67//14 51//17
f 69//18 68//16 50//19
f 70//20 69//18 49//21
f 71//22 70//20 48//23
f 72//24 71//22 47//25
f 73//26 72//24 46//27
f 74//28 73//26 45//29
f 75//30 74//28 44//31
f 76//32 75//30 43//33
f 77//34 76//32 42//35
f 78//36 77//34 41//37
f 79//38 78//36 40//39
f 80//40 79//38 39//41
f 81//42 80//40 38//43
f 82//44 81//42 37//45
f 83//46 82//44 36//47
f 84//48 83//46 35//49
f 85//50 84//48 34//51
f 86//52 85//50 33//53
f 87//54 86//52 32//55
f 88//56 87//54 31//57
f 89//58 88//56 30//59
f 90//60 89//58 29//61
f 91//62 90//60 28//63
f 92//64 91//62 27//65
f 93//66 92//64 26//67
f 94//68 93//66 25//69
f 95//70 94//68 24//71
f 96//72 95//70 23//73
f 97//74 96//72 22//75
f 98//76 97//74 21//77
f 99//78 98//76 20//79
f 100//80 99//78 19//81
f 101//82 100//80 18//83
f 102//84 101//82 17//85
f 103//86 102//84 16//87
f 104//88 103//86 15//89
f 105//90 104//88 14//91
f 106//92 105//90 13//93
f 107//94 106//92 12//95
f 108//96 107//94 11//97
f 109//98 108//96 10//99
f 110//100 109//98 9//101
f 111//102 110//100 8//103
f 112//104 111//102 7//105
f 113//106 112//104 6//107
f 114//108 113//106 5//109
f 115//110 114//108 4//111
f 116//112 115//110 3//113
f 117//114 116//112 2//115
f 61//3 117//114 1//114
f 1//114 58//3 61//3
f 2//115 1//114 117//114
f 3//113 2//115 116//112
f 4//111 3//113 115//110
f 5//109 4//111 114//108
f 6//107 5//109 113//106
f 7//105 6//107 112//104
f 8//103 7//105 111//102
f 9//101 8//103 110//100
f 10//99 9//101 109//98
f 11//97 10//99 108//96
f 12//95 11//97 107//94
f 13//93 12//95 106//92
f 14//91 13//93 105//90
f 15//89 14//91 104//88
f 16//87 15//89 103//86
f 17//85 16//87 102//84
f 18//83 17//85 101//82
f 19//81 18//83 100//80
f 20//79 19//81 99//78
f 21//77 20//79 98//76
f 22//75 21//77 97//74
f 23//73 22//75 96//72
f 24//71 23//73 95//70
f 25//69 24//71 94//68
f 26//67 25//69 93//66
f 27//65 26//67 92//64
f 28//63 27//65 91//62
f 29//61 28//63 90//60
f 30//59 29//61 89//58
f 31//57 30//59 88//56
f 32//55 31//57 87//54
f 33//53 32//55 86//52
f 34//51 33//53 85//50
f 35//49 34//51 84//48
f 36//47 35//49 83//46
f 37//45 36//47 82//44
f 38//43 37//45 81//42
f 39//41 38//43 80//40
f 40//39 39//41 79//38
f 41//37 40//39 78//36
f 42//35 41//37 77//34
f 43//33 42//35 76//32
f 44//31 43//33 75//30
f 45//29 44//31 74//28
f 46//27 45//29 73//26
f 47//25 46//27 72//24
f 48//23 47//25 71//22
f 49//21 48//23 70//20
f 50//19 49//21 69//18
f 51//17 50//19 68//16
f 52//15 51//17 67//14
f 53//13 52//15 66//12
f 54//11 53//13 65//10
f 55//9 54//11 64//8
f 56//7 55//9 63//6
f 57//5 56//7 62//4
f 58//3 57//5 60//2
f 113//116 118//116 119//116
f 113//116 120//116 118//116
f 113//116 121//116 122//116
f 123//116 103//116 104//116
f 77//116 124//116 125//116
f 122//116 120//116 113//116
f 113//116 126//116 127//116
f 123//116 102//116 103//116
f 128//116 101//116 102//116
f 95//116 96//116 129//116
f 125//116 76//116 77//116
f 79//116 130//116 131//116
f 76//116 132//116 133//116
f 73//116 74//116 134//116
f 134//116 74//116 75//116
f 135//116 136//116 137//116
f 113//116 138//116 139//116
f 127//116 121//116 113//116
f 112//116 119//116 140//116
f 141//116 109//116 110//116
f 141//116 123//116 105//116
f 102//116 123//116 128//116
f 128//116 99//116 100//116
f 128//116 129//116 97//116
f 129//116 142//116 95//116
f 70//116 143//116 144//116
f 78//116 145//116 124//116
f 131//116 146//116 79//116
f 76//116 125//116 132//116
f 75//116 133//116 134//116
f 72//116 73//116 147//116
f 135//116 148//116 149//116
f 135//116 150//116 151//116
f 135//116 152//116 153//116
f 135//116 154//116 136//116
f 135//116 155//116 156//116
f 113//116 157//116 158//116
f 139//116 159//116 113//116
f 140//116 111//116 112//116
f 141//116 108//116 109//116
f 105//116 106//116 141//116
f 100//116 101//116 128//116
f 96//116 97//116 129//116
f 70//116 160//116 161//116
f 70//116 162//116 163//116
f 144//116 164//116 70//116
f 77//116 78//116 124//116
f 146//116 165//116 79//116
f 134//116 166//116 73//116
f 167//116 71//116 72//116
f 151//116 148//116 135//116
f 153//116 168//116 135//116
f 156//116 154//116 135//116
f 135//116 169//116 170//116
f 159//116 157//116 113//116
f 113//116 114//116 171//116
f 140//116 110//116 111//116
f 141//116 107//116 108//116
f 104//116 105//116 123//116
f 97//116 98//116 128//116
f 94//116 172//116 173//116
f 137//116 174//116 175//116
f 161//116 137//116 70//116
f 164//116 162//116 70//116
f 165//116 145//116 79//116
f 133//116 75//116 76//116
f 147//116 167//116 72//116
f 171//116 60//116 62//116
f 152//116 176//116 177//116
f 168//116 150//116 135//116
f 170//116 155//116 135//116
f 171//116 138//116 113//116
f 110//116 140//116 141//116
f 98//116 99//116 128//116
f 94//116 178//116 179//116
f 94//116 180//116 181//116
f 94//116 95//116 142//116
f 94//116 182//116 172//116
f 94//116 183//116 184//116
f 173//116 90//116 91//116
f 173//116 185//116 86//116
f 175//116 186//116 137//116
f 163//116 160//116 70//116
f 166//116 147//116 73//116
f 143//116 70//116 71//116
f 137//116 65//116 66//116
f 137//116 63//116 64//116
f 62//116 137//116 171//116
f 187//116 188//116 189//116
f 190//116 177//116 191//116
f 149//116 169//116 135//116
f 137//116 192//116 193//116
f 137//116 194//116 195//116
f 171//116 115//116 116//116
f 158//116 126//116 113//116
f 106//116 107//116 141//116
f 181//116 178//116 94//116
f 142//116 196//116 94//116
f 184//116 182//116 94//116
f 94//116 197//116 198//116
f 91//116 92//116 173//116
f 173//116 88//116 89//116
f 86//116 87//116 173//116
f 130//116 81//116 82//116
f 130//116 79//116 80//116
f 161//116 174//116 137//116
f 167//116 143//116 71//116
f 137//116 68//116 69//116
f 64//116 65//116 137//116
f 171//116 61//116 60//116
f 189//116 199//116 187//116
f 190//116 200//116 201//116
f 177//116 176//116 191//116
f 137//116 193//116 135//116
f 137//116 202//116 194//116
f 116//116 117//116 171//116
f 119//116 112//116 113//116
f 196//116 180//116 94//116
f 198//116 183//116 94//116
f 89//116 90//116 173//116
f 185//116 85//116 86//116
f 80//116 81//116 130//116
f 78//116 79//116 145//116
f 137//116 67//116 68//116
f 62//116 63//116 137//116
f 203//116 204//116 205//116
f 206//116 207//116 203//116
f 188//116 208//116 189//116
f 190//116 209//116 200//116
f 191//116 210//116 190//116
f 195//116 192//116 137//116
f 114//116 115//116 171//116
f 173//116 93//116 94//116
f 87//116 88//116 173//116
f 185//116 83//116 84//116
f 186//116 202//116 137//116
f 66//116 67//116 137//116
f 205//116 173//116 203//116
f 206//116 211//116 212//116
f 203//116 213//116 206//116
f 206//116 214//116 215//116
f 206//116 216//116 217//116
f 206//116 218//116 219//116
f 220//116 215//116 221//116
f 187//116 222//116 223//116
f 199//116 224//116 187//116
f 188//116 201//116 225//116
f 190//116 226//116 209//116
f 177//116 153//116 152//116
f 179//116 197//116 94//116
f 84//116 85//116 185//116
f 69//116 70//116 137//116
f 83//116 185//116 227//116
f 205//116 228//116 173//116
f 203//116 229//116 230//116
f 203//116 207//116 231//116
f 212//116 232//116 206//116
f 213//116 233//116 206//116
f 217//116 214//116 206//116
f 206//116 234//116 218//116
f 221//116 223//116 235//116
f 187//116 236//116 222//116
f 225//116 208//116 188//116
f 210//116 226//116 190//116
f 92//116 93//116 173//116
f 227//116 130//116 83//116
f 230//116 204//116 203//116
f 231//116 237//116 203//116
f 233//116 211//116 206//116
f 219//116 216//116 206//116
f 223//116 221//116 187//116
f 201//116 188//116 190//116
f 82//116 83//116 130//116
f 237//116 229//116 203//116
f 215//116 220//116 206//116
f 224//116 236//116 187//116
f 228//116 185//116 173//116
f 221//116 235//116 220//116
f 232//116 234//116 206//116
f 117//116 61//116 171//116
f 238//117 203//117 173//117
f 173//117 239//117 238//117
f 240//118 241//119 221//119
f 242//120 240//118 215//121
f 243//122 242//120 214//123
f 244//124 243//122 217//125
f 245//126 244//124 216//127
f 246//128 245//126 219//129
f 247//130 246//128 218//131
f 248//132 247//130 234//133
f 249//134 248//132 232//135
f 250//136 249//134 212//137
f 251//138 250//136 211//139
f 252//140 251//138 233//141
f 238//142 252//140 213//143
f 213//143 203//142 238//142
f 233//141 213//143 252//140
f 211//139 233//141 251//138
f 212//137 211//139 250//136
f 232//135 212//137 249//134
f 234//133 232//135 248//132
f 218//131 234//133 247//130
f 219//129 218//131 246//128
f 216//127 219//129 245//126
f 217//125 216//127 244//124
f 214//123 217//125 243//122
f 215//121 214//123 242//120
f 221//119 215//121 240//118
f 253//144 254//145 188//145
f 241//146 253//144 187//147
f 187//147 221//146 241//146
f 188//145 187//147 253//144
f 255//148 256//149 177//149
f 254//150 255//148 190//151
f 190//151 188//150 254//150
f 177//149 190//151 255//148
f 257//152 258//153 137//153
f 259//154 257//152 136//155
f 260//156 259//154 154//157
f 261//158 260//156 156//159
f 262//160 261//158 155//161
f 263//162 262//160 170//163
f 264//164 263//162 169//165
f 265//166 264//164 149//167
f 266//168 265//166 148//169
f 267//170 266//168 151//171
f 268//172 267//170 150//173
f 269//174 268//172 168//175
f 256//176 269//174 153//177
f 153//177 177//176 256//176
f 168//175 153//177 269//174
f 150//173 168//175 268//172
f 151//171 150//173 267//170
f 148//169 151//171 266//168
f 149//167 148//169 265//166
f 169//165 149//167 264//164
f 170//163 169//165 263//162
f 155//161 170//163 262//160
f 156//159 155//161 261//158
f 154//157 156//159 260//156
f 136//155 154//157 259//154
f 137//153 136//155 257//152
f 137//178 258//178 270//178
f 270//178 171//178 137//178
f 271//179 272//180 140//180
f 273//181 271//179 119//182
f 274//183 273//181 118//184
f 275//185 274//183 120//186
f 276//187 275//185 122//188
f 277//189 276//187 121//190
f 278//191 277//189 127//192
f 279//193 278//191 126//194
f 280//195 279//193 158//196
f 281//197 280//195 157//198
f 282//199 281//197 159//200
f 283//201 282//199 139//202
f 270//203 283//201 138//204
f 138//204 171//203 270//203
f 139//202 138//204 283//201
f 159//200 139//202 282//199
f 157//198 159//200 281//197
f 158//196 157//198 280//195
f 126//194 158//196 279//193
f 127//192 126//194 278//191
f 121//190 127//192 277//189
f 122//188 121//190 276//187
f 120//186 122//188 275//185
f 118//184 120//186 274//183
f 119//182 118//184 273//181
f 140//180 119//182 271//179
f 284//205 285//206 123//206
f 272//207 284//205 141//208
f 141//208 140//207 272//207
f 123//206 141//208 284//205
f 286//209 287//210 129//210
f 285//211 286//209 128//212
f 128//212 123//211 285//211
f 129//210 128//212 286//209
f 288//213 239//214 173//214
f 289//215 288//213 172//216
f 290//217 289//215 182//218
f 291//219 290//217 184//220
f 292//221 291//219 183//222
f 293//223 292//221 198//224
f 294//225 293//223 197//226
f 295//227 294//225 179//228
f 296//229 295//227 178//230
f 297//231 296//229 181//232
f 298//233 297//231 180//234
f 299//235 298//233 196//236
f 287//237 299//235 142//238
f 142//238 129//237 287//237
f 196//236 142//238 299//235
f 180//234 196//236 298//233
f 181//232 180//234 297//231
f 178//230 181//232 296//229
f 179//228 178//230 295//227
f 197//226 179//228 294//225
f 198//224 197//226 293//223
f 183//222 198//224 292//221
f 184//220 183//222 291//219
f 182//218 184//220 290//217
f 172//216 182//218 289//215
f 173//214 172//216 288//213
f 194//239 202//240 300//240
f 195//241 194//239 301//242
f 192//243 195//241 302//244
f 193//245 192//243 303//246
f 135//247 193//245 304//248
f 152//249 135//247 305//250
f 176//251 152//249 306//252
f 191//253 176//251 307//254
f 210//255 191//253 308//256
f 226//257 210//255 309//258
f 209//259 226//257 310//260
f 200//261 209//259 311//262
f 201//263 200//261 312//264
f 225//265 201//263 313//266
f 208//267 225//265 314//268
f 189//269 208//267 315//270
f 199//271 189//269 316//272
f 224//273 199//271 317//274
f 236//275 224//273 318//276
f 222//277 236//275 319//278
f 223//279 222//277 320//280
f 235//281 223//279 321//282
f 220//283 235//281 322//284
f 206//285 220//283 323//286
f 207//287 206//285 324//288
f 231//289 207//287 325//290
f 237//291 231//289 326//292
f 229//293 237//291 327//294
f 230//295 229//293 328//296
f 204//297 230//295 329//298
f 205//299 204//297 330//300
f 228//301 205//299 331//302
f 185//303 228//301 332//304
f 227//305 185//303 333//306
f 130//307 227//305 334//308
f 131//309 130//307 335//310
f 146//311 131//309 336//312
f 165//313 146//311 337//314
f 145//315 165//313 338//316
f 124//317 145//315 339//318
f 125//319 124//317 340//320
f 132//321 125//319 341//322
f 133//323 132//321 342//324
f 134//325 133//323 343//326
f 166//327 134//325 344//328
f 147//329 166//327 345//330
f 167//331 147//329 346//332
f 143//333 167//331 347//334
f 144//335 143//333 348//336
f 164//337 144//335 349//338
f 162//339 164//337 350//340
f 163//341 162//339 351//342
f 160//343 163//341 352//344
f 161//345 160//343 353//346
f 174//347 161//345 354//348
f 175//349 174//347 355//350
f 186//351 175//349 356//352
f 202//240 186//351 357//351
f 357//351 300//240 202//240
f 356//352 357//351 186//351
f 355//350 356//352 175//349
f 354//348 355//350 174//347
f 353//346 354//348 161//345
f 352//344 353//346 160//343
f 351//342 352//344 163//341
f 350//340 351//342 162//339
f 349//338 350//340 164//337
f 348//336 349//338 144//335
f 347//334 348//336 143//333
f 346//332 347//334 167//331
f 345//330 346//332 147//329
f 344//328 345//330 166//327
f 343//326 344//328 134//325
f 342//324 343//326 133//323
f 341//322 342//324 132//321
f 340//320 341//322 125//319
f 339//318 340//320 124//317
f 338//316 339//318 145//315
f 337//314 338//316 165//313
f 336//312 337//314 146//311
f 335//310 336//312 131//309
f 334//308 335//310 130//307
f 333//306 334//308 227//305
f 332//304 333//306 185//303
f 331//302 332//304 228//301
f 330//300 331//302 205//299
f 329//298 330//300 204//297
f 328//296 329//298 230//295
f 327//294 328//296 229//293
f 326//292 327//294 237//291
f 325//290 326//292 231//289
f 324//288 325//290 207//287
f 323//286 324//288 206//285
f 322//284 323//286 220//283
f 321//282 322//284 235//281
f 320//280 321//282 223//279
f 319//278 320//280 222//277
f 318//276 319//278 236//275
f 317//274 318//276 224//273
f 316//272 317//274 199//271
f 315//270 316//272 189//269
f 314//268 315//270 208//267
f 313//266 314//268 225//265
f 312//264 313//266 201//263
f 311//262 312//264 200//261
f 310//260 311//262 209//259
f 309//258 310//260 226//257
f 308//256 309//258 210//255
f 307//254 308//256 191//253
f 306//252 307//254 176//251
f 305//250 306//252 152//249
f 304//248 305//250 135//247
f 303//246 304//248 193//245
f 302//244 303//246 192//243
f 301//242 302//244 195//241
f 300//240 301//242 194//239
f 358//353 357//353 356//353
f 356//353 355//353 358//353
f 355//353 354//353 358//353
f 354//353 353//353 358//353
f 353//353 352//353 358//353
f 352//353 351//353 358//353
f 351//353 350//353 358//353
f 350//353 349//353 358//353
f 349//353 348//353 358//353
f 348//353 347//353 358//353
f 347//353 346//353 358//353
f 346//353 345//353 358//353
f 345//353 344//353 358//353
f 344//353 343//353 358//353
f 343//353 342//353 358//353
f 342//353 341//353 358//353
f 341//353 340//353 358//353
f 340//353 339//353 358//353
f 339//353 338//353 358//353
f 338//353 337//353 358//353
f 337//353 336//353 358//353
f 336//353 335//353 358//353
f 335//353 334//353 358//353
f 334//353 333//353 358//353
f 333//353 332//353 358//353
f 332//353 331//353 358//353
f 331//353 330//353 358//353
f 330//353 329//353 358//353
f 329//353 328//353 358//353
f 328//353 327//353 358//353
f 327//353 326//353 358//353
f 326//353 325//353 358//353
f 325//353 324//353 358//353
f 324//353 323//353 358//353
f 323//353 322//353 358//353
f 322//353 321//353 358//353
f 321//353 320//353 358//353
f 320//353 319//353 358//353
f 319//353 318//353 358//353
f 318//353 317//353 358//353
f 317//353 316//353 358//353
f 316//353 315//353 358//353
f 315//353 314//353 358//353
f 314//353 313//353 358//353
f 313//353 312//353 358//353
f 312//353 311//353 358//353
f 311//353 310//353 358//353
f 310//353 309//353 358//353
f 309//353 308//353 358//353
f 308//353 307//353 358//353
f 307//353 306//353 358//353
f 306//353 305//353 358//353
f 305//353 304//353 358//353
f 304//353 303//353 358//353
f 303//353 302//353 358//353
f 302//353 301//353 358//353
f 301//353 300//353 358//353
f 300//353 357//353 358//353
f 264//353 265//353 359//353
f 264//353 360//353 361//353
f 264//353 362//353 363//353
f 359//353 364//353 264//353
f 363//353 360//353 264//353
f 263//353 365//353 366//353
f 367//353 368//353 238//353
f 364//353 369//353 264//353
f 264//353 370//353 371//353
f 264//353 372//353 362//353
f 263//353 373//353 365//353
f 263//353 371//353 374//353
f 368//353 252//353 238//353
f 247//353 375//353 376//353
f 247//353 248//353 368//353
f 247//353 377//353 378//353
f 247//353 379//353 380//353
f 247//353 381//353 382//353
f 359//353 266//353 267//353
f 369//353 372//353 264//353
f 361//353 370//353 264//353
f 374//353 373//353 263//353
f 238//353 239//353 367//353
f 368//353 375//353 247//353
f 380//353 377//353 247//353
f 247//353 383//353 381//353
f 384//353 253//353 241//353
f 385//353 254//353 253//353
f 385//353 386//353 255//353
f 386//353 359//353 256//353
f 265//353 266//353 359//353
f 366//353 262//353 263//353
f 278//353 279//353 387//353
f 388//353 284//353 272//353
f 389//353 285//353 284//353
f 389//353 390//353 286//353
f 390//353 391//353 287//353
f 293//353 392//353 393//353
f 293//353 394//353 395//353
f 293//353 396//353 367//353
f 239//353 288//353 367//353
f 376//353 397//353 247//353
f 382//353 379//353 247//353
f 246//353 398//353 399//353
f 253//353 384//353 385//353
f 256//353 255//353 386//353
f 371//353 263//353 264//353
f 366//353 260//353 261//353
f 366//353 257//353 259//353
f 278//353 400//353 401//353
f 387//353 402//353 278//353
f 277//353 403//353 404//353
f 277//353 405//353 406//353
f 277//353 278//353 407//353
f 277//353 408//353 409//353
f 284//353 388//353 389//353
f 287//353 286//353 390//353
f 395//353 392//353 293//353
f 293//353 410//353 396//353
f 367//353 289//353 290//353
f 368//353 251//353 252//353
f 378//353 246//353 247//353
f 246//353 411//353 398//353
f 399//353 243//353 244//353
f 255//353 254//353 385//353
f 267//353 268//353 359//353
f 259//353 260//353 366//353
f 387//353 270//353 258//353
f 402//353 400//353 278//353
f 406//353 403//353 277//353
f 407//353 412//353 277//353
f 277//353 413//353 408//353
f 286//353 285//353 389//353
f 294//353 414//353 415//353
f 294//353 295//353 391//353
f 393//353 416//353 293//353
f 293//353 294//353 417//353
f 293//353 418//353 410//353
f 288//353 289//353 367//353
f 397//353 383//353 247//353
f 246//353 378//353 411//353
f 399//353 242//353 243//353
f 241//353 399//353 384//353
f 261//353 262//353 366//353
f 258//353 366//353 387//353
f 387//353 281//353 282//353
f 401//353 407//353 278//353
f 412//353 405//353 277//353
f 277//353 419//353 413//353
f 391//353 299//353 287//353
f 391//353 414//353 294//353
f 417//353 394//353 293//353
f 293//353 420//353 418//353
f 290//353 291//353 367//353
f 368//353 249//353 250//353
f 399//353 245//353 246//353
f 399//353 240//353 242//353
f 359//353 269//353 256//353
f 258//353 257//353 366//353
f 282//353 283//353 387//353
f 279//353 280//353 387//353
f 409//353 276//353 277//353
f 272//353 409//353 388//353
f 391//353 296//353 297//353
f 415//353 417//353 294//353
f 367//353 292//353 293//353
f 250//353 251//353 368//353
f 244//353 245//353 399//353
f 268//353 269//353 359//353
f 280//353 281//353 387//353
f 409//353 275//353 276//353
f 409//353 273//353 274//353
f 272//353 271//353 409//353
f 295//353 296//353 391//353
f 291//353 292//353 367//353
f 241//353 240//353 399//353
f 404//353 419//353 277//353
f 271//353 273//353 409//353
f 297//353 298//353 391//353
f 248//353 249//353 368//353
f 274//353 275//353 409//353
f 416//353 420//353 293//353
f 298//353 299//353 391//353
f 283//353 270//353 387//353
f 421//354 399//354 398//355
f 422//355 398//355 411//356
f 423//356 411//356 378//357
f 424//357 378//357 377//358
f 425//358 377//358 380//359
f 426//359 380//359 379//360
f 427//360 379//360 382//361
f 428//361 382//361 381//362
f 429//362 381//362 383//363
f 430//363 383//363 397//364
f 431//364 397//364 376//365
f 432//365 376//365 375//366
f 433//366 375//366 368//367
f 368//367 434//367 433//366
f 375//366 433//366 432//365
f 376//365 432//365 431//364
f 397//364 431//364 430//363
f 383//363 430//363 429//362
f 381//362 429//362 428//361
f 382//361 428//361 427//360
f 379//360 427//360 426//359
f 380//359 426//359 425//358
f 377//358 425//358 424//357
f 378//357 424//357 423//356
f 411//356 423//356 422//355
f 398//355 422//355 421//354
f 434//367 368//367 367//367
f 367//367 435//367 434//367
f 436//368 359//368 386//369
f 437//369 386//369 385//370
f 438//370 385//370 384//371
f 439//371 384//371 399//372
f 399//372 421//372 439//371
f 384//371 439//371 438//370
f 385//370 438//370 437//369
f 386//369 437//369 436//368
f 440//373 421//373 422//374
f 441//374 422//374 423//375
f 442//375 423//375 424//376
f 443//376 424//376 425//377
f 444//377 425//377 426//378
f 445//378 426//378 427//379
f 446//379 427//379 428//380
f 447//380 428//380 429//381
f 448//381 429//381 430//382
f 449//382 430//382 431//383
f 450//383 431//383 432//384
f 451//384 432//384 433//385
f 452//385 433//385 434//386
f 434//386 453//386 452//385
f 433//385 452//385 451//384
f 432//384 451//384 450//383
f 431//383 450//383 449//382
f 430//382 449//382 448//381
f 429//381 448//381 447//380
f 428//380 447//380 446//379
f 427//379 446//379 445//378
f 426//378 445//378 444//377
f 425//377 444//377 443//376
f 424//376 443//376 442//375
f 423//375 442//375 441//374
f 422//374 441//374 440//373
f 435//387 367//387 396//388
f 454//388 396//388 410//389
f 455//389 410//389 418//390
f 456//390 418//390 420//391
f 457//391 420//391 416//392
f 458//392 416//392 393//393
f 459//393 393//393 392//394
f 460//394 392//394 395//395
f 461//395 395//395 394//396
f 462//396 394//396 417//397
f 463//397 417//397 415//398
f 464//398 415//398 414//399
f 465//399 414//399 391//400
f 391//400 466//400 465//399
f 414//399 465//399 464//398
f 415//398 464//398 463//397
f 417//397 463//397 462//396
f 394//396 462//396 461//395
f 395//395 461//395 460//394
f 392//394 460//394 459//393
f 393//393 459//393 458//392
f 416//392 458//392 457//391
f 420//391 457//391 456//390
f 418//390 456//390 455//389
f 410//389 455//389 454//388
f 396//388 454//388 435//387
f 467//401 453//401 434//401
f 434//401 435//401 467//401
f 468//402 366//402 365//403
f 469//403 365//403 373//404
f 470//404 373//404 374//405
f 471//405 374//405 371//406
f 472//406 371//406 370//407
f 473//407 370//407 361//408
f 474//408 361//408 360//409
f 475//409 360//409 363//410
f 476//410 363//410 362//411
f 477//411 362//411 372//412
f 478//412 372//412 369//413
f 479//413 369//413 364//414
f 480//414 364//414 359//415
f 359//415 436//415 480//414
f 364//414 480//414 479//413
f 369//413 479//413 478//412
f 372//412 478//412 477//411
f 362//411 477//411 476//410
f 363//410 476//410 475//409
f 360//409 475//409 474//408
f 361//408 474//408 473//407
f 370//407 473//407 472//406
f 371//406 472//406 471//405
f 374//405 471//405 470//404
f 373//404 470//404 469//403
f 365//403 469//403 468//402
f 481//416 436//416 437//417
f 482//417 437//417 438//418
f 483//418 438//418 439//419
f 484//419 439//419 421//420
f 421//420 440//420 484//419
f 439//419 484//419 483//418
f 438//418 483//418 482//417
f 437//417 482//417 481//416
f 466//421 391//421 390//422
f 485//422 390//422 389//423
f 486//423 389//423 388//424
f 487//424 388//424 409//425
f 409//425 488//425 487//424
f 388//424 487//424 486//423
f 389//423 486//423 485//422
f 390//422 485//422 466//421
f 467//426 435//426 454//427
f 489//427 454//427 455//428
f 490//428 455//428 456//429
f 491//429 456//429 457//430
f 492//430 457//430 458//431
f 493//431 458//431 459//432
f 494//432 459//432 460//433
f 495//433 460//433 461//434
f 496//434 461//434 462//435
f 497//435 462//435 463//436
f 498//436 463//436 464//437
f 499//437 464//437 465//438
f 500//438 465//438 466//439
f 466//439 501//439 500//438
f 465//438 500//438 499//437
f 464//437 499//437 498//436
f 463//436 498//436 497//435
f 462//435 497//435 496//434
f 461//434 496//434 495//433
f 460//433 495//433 494//432
f 459//432 494//432 493//431
f 458//431 493//431 492//430
f 457//430 492//430 491//429
f 456//429 491//429 490//428
f 455//428 490//428 489//427
f 454//427 489//427 467//426
f 387//440 366//440 468//440
f 468//440 502//440 387//440
f 503//441 468//441 469//442
f 504//442 469//442 470//443
f 505//443 470//443 471//444
f 506//444 471//444 472//445
f 507//445 472//445 473//446
f 508//446 473//446 474//447
f 509//447 474//447 475//448
f 510//448 475//448 476//449
f 511//449 476//449 477//450
f 512//450 477//450 478//451
f 513//451 478//451 479//452
f 514//452 479//452 480//453
f 515//453 480//453 436//454
f 436//454 481//454 515//453
f 480//453 515//453 514//452
f 479//452 514//452 513//451
f 478//451 513//451 512//450
f 477//450 512//450 511//449
f 476//449 511//449 510//448
f 475//448 510//448 509//447
f 474//447 509//447 508//446
f 473//446 508//446 507//445
f 472//445 507//445 506//444
f 471//444 506//444 505//443
f 470//443 505//443 504//442
f 469//442 504//442 503//441
f 488//455 409//455 408//456
f 516//456 408//456 413//457
f 517//457 413//457 419//458
f 518//458 419//458 404//459
f 519//459 404//459 403//460
f 520//460 403//460 406//461
f 521//461 406//461 405//462
f 522//462 405//462 412//463
f 523//463 412//463 407//464
f 524//464 407//464 401//465
f 525//465 401//465 400//466
f 526//466 400//466 402//467
f 527//467 402//467 387//468
f 387//468 502//468 527//467
f 402//467 527//467 526//466
f 400//466 526//466 525//465
f 401//465 525//465 524//464
f 407//464 524//464 523//463
f 412//463 523//463 522//462
f 405//462 522//462 521//461
f 406//461 521//461 520//460
f 403//460 520//460 519//459
f 404//459 519//459 518//458
f 419//458 518//458 517//457
f 413//457 517//457 516//456
f 408//456 516//456 488//455
f 501//469 466//469 485//470
f 528//470 485//470 486//471
f 529//471 486//471 487//472
f 530//472 487//472 488//473
f 488//473 531//473 530//472
f 487//472 530//472 529//471
f 486//471 529//471 528//470
f 485//470 528//470 501//469
f 531//473 488//473 516//474
f 532//474 516//474 517//475
f 533//475 517//475 518//476
f 534//476 518//476 519//477
f 535//477 519//477 520//478
f 536//478 520//478 521//479
f 537//479 521//479 522//480
f 538//480 522//480 523//481
f 539//481 523//481 524//482
f 540//482 524//482 525//483
f 541//483 525//483 526//484
f 542//484 526//484 527//485
f 543//485 527//485 502//486
f 502//486 544//486 543//485
f 527//485 543//485 542//484
f 526//484 542//484 541//483
f 525//483 541//483 540//482
f 524//482 540//482 539//481
f 523//481 539//481 538//480
f 522//480 538//480 537//479
f 521//479 537//479 536//478
f 520//478 536//478 535//477
f 519//477 535//477 534//476
f 518//476 534//476 533//475
f 517//475 533//475 532//474
f 516//474 532//474 531//473
f 503//486 544//486 502//486
f 502//486 468//486 503//486
f 453//487 545//487 546//488
f 452//488 546//488 547//489
f 451//489 547//489 548//490
f 450//490 548//490 549//491
f 449//491 549//491 550//492
f 448//492 550//492 551//493
f 447//493 551//493 552//494
f 446//494 552//494 553//495
f 445//495 553//495 554//496
f 444//496 554//496 555//497
f 443//497 555//497 556//498
f 442//498 556//498 557//499
f 441//499 557//499 558//500
f 558//500 440//500 441//499
f 557//499 441//499 442//498
f 556//498 442//498 443//497
f 555//497 443//497 444//496
f 554//496 444//496 445//495
f 553//495 445//495 446//494
f 552//494 446//494 447//493
f 551//493 447//493 448//492
f 550//492 448//492 449//491
f 549//491 449//491 450//490
f 548//490 450//490 451//489
f 547//489 451//489 452//488
f 546//488 452//488 453//487
f 559//501 560//501 561//501
f 561//501 562//501 559//501
f 562//501 558//501 559//501
f 557//501 563//501 559//501
f 557//501 564//501 563//501
f 557//501 565//501 564//501
f 566//501 567//501 568//501
f 558//501 557//501 559//501
f 556//501 569//501 570//501
f 568//501 571//501 566//501
f 569//501 556//501 555//501
f 570//501 565//501 556//501
f 572//501 573//501 574//501
f 575//501 576//501 567//501
f 557//501 556//501 565//501
f 554//501 577//501 578//501
f 572//501 579//501 573//501
f 566//501 575//501 567//501
f 577//501 554//501 553//501
f 578//501 569//501 554//501
f 552//501 580//501 581//501
f 572//501 582//501 579//501
f 576//501 583//501 584//501
f 575//501 585//501 576//501
f 586//501 549//501 548//501
f 555//501 554//501 569//501
f 552//501 587//501 588//501
f 581//501 589//501 552//501
f 572//501 590//501 582//501
f 572//501 591//501 592//501
f 585//501 583//501 576//501
f 586//501 550//501 549//501
f 586//501 552//501 551//501
f 588//501 577//501 552//501
f 552//501 586//501 580//501
f 592//501 590//501 572//501
f 572//501 593//501 594//501
f 593//501 595//501 576//501
f 593//501 572//501 596//501
f 551//501 550//501 586//501
f 589//501 587//501 552//501
f 594//501 591//501 572//501
f 596//501 595//501 593//501
f 597//501 598//501 599//501
f 597//501 600//501 601//501
f 597//501 602//501 603//501
f 586//501 547//501 546//501
f 553//501 552//501 577//501
f 584//501 593//501 576//501
f 597//501 604//501 605//501
f 601//501 598//501 597//501
f 597//501 606//501 602//501
f 548//501 547//501 586//501
f 597//501 586//501 545//501
f 605//501 572//501 597//501
f 603//501 600//501 597//501
f 545//501 606//501 597//501
f 599//501 604//501 597//501
f 574//501 597//501 572//501
f 546//501 545//501 586//501
f 453//502 467//502 606//502
f 606//502 545//502 453//502
f 440//503 558//503 562//504
f 484//504 562//504 561//505
f 483//505 561//505 560//506
f 482//506 560//506 559//507
f 559//507 481//507 482//506
f 560//506 482//506 483//505
f 561//505 483//505 484//504
f 562//504 484//504 440//503
f 501//508 567//508 576//509
f 500//509 576//509 595//510
f 499//510 595//510 596//511
f 498//511 596//511 572//512
f 497//512 572//512 605//513
f 496//513 605//513 604//514
f 495//514 604//514 599//515
f 494//515 599//515 598//516
f 493//516 598//516 601//517
f 492//517 601//517 600//518
f 491//518 600//518 603//519
f 490//519 603//519 602//520
f 489//520 602//520 606//521
f 606//521 467//521 489//520
f 602//520 489//520 490//519
f 603//519 490//519 491//518
f 600//518 491//518 492//517
f 601//517 492//517 493//516
f 598//516 493//516 494//515
f 599//515 494//515 495//514
f 604//514 495//514 496//513
f 605//513 496//513 497//512
f 572//512 497//512 498//511
f 596//511 498//511 499//510
f 595//510 499//510 500//509
f 576//509 500//509 501//508
f 481//522 559//522 563//523
f 515//523 563//523 564//524
f 514//524 564//524 565//525
f 513//525 565//525 570//526
f 512//526 570//526 569//527
f 511//527 569//527 578//528
f 510//528 578//528 577//529
f 509//529 577//529 588//530
f 508//530 588//530 587//531
f 507//531 587//531 589//532
f 506//532 589//532 581//533
f 505//533 581//533 580//534
f 504//534 580//534 586//535
f 586//535 503//535 504//534
f 580//534 504//534 505//533
f 581//533 505//533 506//532
f 589//532 506//532 507//531
f 587//531 507//531 508//530
f 588//530 508//530 509//529
f 577//529 509//529 510//528
f 578//528 510//528 511//527
f 569//527 511//527 512//526
f 570//526 512//526 513//525
f 565//525 513//525 514//524
f 564//524 514//524 515//523
f 563//523 515//523 481//522
f 531//536 575//536 566//537
f 530//537 566//537 571//538
f 529//538 571//538 568//539
f 528//539 568//539 567//540
f 567//540 501//540 528//539
f 568//539 528//539 529//538
f 571//538 529//538 530//537
f 566//537 530//537 531//536
f 544//541 503//541 586//541
f 586//541 597//541 544//541
f 544//541 597//541 574//542
f 543//542 574//542 573//543
f 542//543 573//543 579//544
f 541//544 579//544 582//545
f 540//545 582//545 590//546
f 539//546 590//546 592//547
f 538//547 592//547 591//548
f 537//548 591//548 594//549
f 536//549 594//549 593//550
f 535//550 593//550 584//551
f 534//551 584//551 583//552
f 533//552 583//552 585//553
f 532//553 585//553 575//554
f 575//554 531//554 532//553
f 585//553 532//553 533//552
f 583//552 533//552 534//551
f 584//551 534//551 535//550
f 593//550 535//550 536//549
f 594//549 536//549 537//548
f 591//548 537//548 538//547
f 592//547 538//547 539//546
f 590//546 539//546 540//545
f 582//545 540//545 541//544
f 579//544 541//544 542//543
f 573//543 542//543 543//542
f 574//542 543//542 544//541
