# OBJ generated by ONSHAPE BY PTC INC, 1.220 Units = meters
mtllib carriage_left.mtl
g Part 2
v -0.01 0.0075 0.0146284
v -0.01 0.003 0.0146284
v -0.00999157 0.003 0.0148119
v -0.00999157 0.0075 0.0148119
v -0.00996635 0.003 0.0149937
v -0.00996635 0.0075 0.0149937
v -0.00992455 0.003 0.0151726
v -0.00992455 0.0075 0.0151726
v -0.00986653 0.003 0.0153468
v -0.00986653 0.0075 0.0153468
v -0.00587483 0.0075 0.0257184
v -0.00587483 0.003 0.0257184
v -0.00579354 0.003 0.0259016
v -0.00579354 0.0075 0.0259016
v -0.0056943 0.003 0.0260758
v -0.0056943 0.0075 0.0260758
v -0.00557812 0.003 0.0262392
v -0.00557812 0.0075 0.0262392
v -0.00544617 0.003 0.0263902
v -0.00544617 0.0075 0.0263902
v -0.00529977 0.003 0.0265271
v -0.00529977 0.0075 0.0265271
v -0.00514039 0.003 0.0266487
v -0.00514039 0.0075 0.0266487
v -0.00496964 0.003 0.0267538
v -0.00496964 0.0075 0.0267538
v -0.00478923 0.003 0.0268412
v -0.00478923 0.0075 0.0268412
v -0.00460097 0.003 0.0269102
v -0.00460097 0.0075 0.0269102
v -0.00440675 0.003 0.0269599
v -0.00440675 0.0075 0.0269599
v -0.00420853 0.003 0.02699
v -0.00420853 0.0075 0.02699
v -0.0040083 0.003 0.027
v -0.0040083 0.0075 0.027
v 0.0610753 0.0075 0.027
v 0.0610753 0.003 0.027
v 0.0614107 0.003 0.0269832
v 0.0614107 0.0075 0.0269832
v 0.0617427 0.003 0.0269328
v 0.0617427 0.0075 0.0269328
v 0.062068 0.003 0.0268495
v 0.062068 0.0075 0.0268495
v 0.0623834 0.003 0.0267341
v 0.0623834 0.0075 0.0267341
v 0.0626856 0.003 0.0265876
v 0.0626856 0.0075 0.0265876
v 0.0629716 0.003 0.0264117
v 0.0629716 0.0075 0.0264117
v 0.0632385 0.003 0.0262079
v 0.0632385 0.0075 0.0262079
v 0.0634838 0.003 0.0259785
v 0.0634838 0.0075 0.0259785
v 0.0637048 0.003 0.0257257
v 0.0637048 0.0075 0.0257257
v 0.0638994 0.003 0.025452
v 0.0638994 0.0075 0.025452
v 0.0640656 0.003 0.0251602
v 0.0640656 0.0075 0.0251602
v 0.0642018 0.003 0.0248533
v 0.0642018 0.0075 0.0248533
v 0.0654718 0.003 0.0215533
v 0.0654718 0.0075 0.0215533
v 0.065583 0.003 0.0212103
v 0.065583 0.0075 0.0212103
v 0.0656567 0.003 0.0208574
v 0.0656567 0.0075 0.0208574
v 0.0656921 0.003 0.0204986
v 0.0656921 0.0075 0.0204986
v 0.0656887 0.003 0.020138
v 0.0656887 0.0075 0.020138
v 0.0656465 0.003 0.01978
v 0.0656465 0.0075 0.01978
v 0.0655662 0.003 0.0194285
v 0.0655662 0.0075 0.0194285
v 0.0654485 0.003 0.0190877
v 0.0654485 0.0075 0.0190877
v 0.0652948 0.003 0.0187615
v 0.0652948 0.0075 0.0187615
v 0.065107 0.003 0.0184537
v 0.065107 0.0075 0.0184537
v 0.0648873 0.003 0.0181679
v 0.0648873 0.0075 0.0181679
v 0.064638 0.003 0.0179074
v 0.064638 0.0075 0.0179074
v 0.0643623 0.003 0.0176752
v 0.0643623 0.0075 0.0176752
v 0.0640631 0.003 0.0174739
v 0.0640631 0.0075 0.0174739
v 0.0637441 0.003 0.017306
v 0.0637441 0.0075 0.017306
v 0.0634088 0.003 0.0171733
v 0.0634088 0.0075 0.0171733
v 0.0630613 0.003 0.0170774
v 0.0630613 0.0075 0.0170774
v 0.0627054 0.003 0.0170194
v 0.0627054 0.0075 0.0170194
v 0.0623454 0.003 0.017
v 0.0623454 0.0075 0.017
v 0.0372638 0.003 0.017
v 0.0372638 0.0075 0.017
v 0.0368544 0.0075 0.0169807
v 0.0364487 0.0075 0.016923
v 0.0368544 0.003 0.0169807
v 0.0360502 0.0075 0.0168273
v 0.0364487 0.003 0.016923
v 0.0356625 0.0075 0.0166945
v 0.0360502 0.003 0.0168273
v 0.0352889 0.0075 0.0165259
v 0.0356625 0.003 0.0166945
v 0.0349329 0.0075 0.0163228
v 0.0352889 0.003 0.0165259
v 0.0349329 0.003 0.0163228
v 0.0120192 0.003 0.00178139
v 0.0120192 0.0075 0.00178139
v 0.0116623 0.0075 0.00152892
v 0.0113326 0.0075 0.00124191
v 0.0116623 0.003 0.00152892
v 0.0110334 0.0075 0.000923259
v 0.0113326 0.003 0.00124191
v 0.0107676 0.0075 0.000576185
v 0.0110334 0.003 0.000923259
v 0.0105381 0.0075 0.000204193
v 0.0107676 0.003 0.000576185
v 0.010347 0.0075 -0.000188961
v 0.0105381 0.003 0.000204193
v 0.0101963 0.0075 -0.000599306
v 0.010347 0.003 -0.000188961
v 0.0100876 0.0075 -0.0010227
v 0.0101963 0.003 -0.000599306
v 0.010022 0.0075 -0.00145487
v 0.0100876 0.003 -0.0010227
v 0.01 0.0075 -0.00189144
v 0.010022 0.003 -0.00145487
v 0.01 0.003 -0.00189144
v 0.007 0.003 0.015
v 0.00993444 0.003 0.0126237
v -0.00731359 0.003 0.0149836
v -0.007 0.003 0.015
v 0.01 0.003 0.012
v 0.00998357 0.003 0.0123136
v 0.00762374 0.003 0.0149344
v 0.00792705 0.003 0.0148532
v 0.00731359 0.003 0.0149836
v -0.00900739 0.003 0.0142294
v 0.00974064 0.003 0.0132202
v 0.00985317 0.003 0.0129271
v 0.00922943 0.003 0.0140074
v 0.00942705 0.003 0.0137634
v -0.00762374 0.003 0.0149344
v -0.0085 0.003 0.0145981
v -0.00822021 0.003 0.0147406
v 0.00900739 0.003 0.0142294
v 0.0085 0.003 0.0145981
v 0.00876336 0.003 0.0144271
v 0.00822021 0.003 0.0147406
v -0.00792705 0.003 0.0148532
v -0.00985317 0.003 0.0129271
v -0.00974064 0.003 0.0132202
v 0.00959808 0.003 0.0135
v -0.00876336 0.003 0.0144271
v -0.00942705 0.003 0.0137634
v -0.00922943 0.003 0.0140074
v -0.00959808 0.003 0.0135
v -0.00998357 0.003 0.0123136
v -0.00993444 0.003 0.0126237
v -0.01 0.003 0.012
v 0.007 -8.47033e-22 0.015
v 0.00731359 -8.47033e-22 0.0149836
v 0.00762374 -8.47033e-22 0.0149344
v 0.00792705 -8.47033e-22 0.0148532
v 0.00822021 -8.47033e-22 0.0147406
v 0.0085 -8.47033e-22 0.0145981
v 0.00876336 -8.47033e-22 0.0144271
v 0.00900739 -8.47033e-22 0.0142294
v 0.00922943 -8.47033e-22 0.0140074
v 0.00942705 -8.47033e-22 0.0137634
v 0.00959808 -8.47033e-22 0.0135
v 0.00974064 -8.47033e-22 0.0132202
v 0.00985317 -8.47033e-22 0.0129271
v 0.00993444 -8.47033e-22 0.0126237
v 0.00998357 -8.47033e-22 0.0123136
v 0.01 -8.47033e-22 0.012
v -0.007 -8.47033e-22 0.015
v -0.01 -8.47033e-22 0.012
v -0.00998357 -8.47033e-22 0.0123136
v -0.00993444 -8.47033e-22 0.0126237
v -0.00985317 -8.47033e-22 0.0129271
v -0.00974064 -8.47033e-22 0.0132202
v -0.00959808 -8.47033e-22 0.0135
v -0.00942705 -8.47033e-22 0.0137634
v -0.00922943 -8.47033e-22 0.0140074
v -0.00900739 -8.47033e-22 0.0142294
v -0.00876336 -8.47033e-22 0.0144271
v -0.0085 -8.47033e-22 0.0145981
v -0.00822021 -8.47033e-22 0.0147406
v -0.00792705 -8.47033e-22 0.0148532
v -0.00762374 -8.47033e-22 0.0149344
v -0.00731359 -8.47033e-22 0.0149836
v 0.01 -8.47033e-22 -0.012
v 0.01 0.0075 -0.012
v -0.01 0.0075 -0.012
v -0.01 -8.47033e-22 -0.012
v 0.00900739 0.0075 -0.0142294
v 0.00974064 0.0075 -0.0132202
v 0.00959808 0.0075 -0.0135
v 0.00942705 0.0075 -0.0137634
v -0.0085 0.0075 -0.0145981
v -0.00762374 0.0075 -0.0149344
v -0.00792705 0.0075 -0.0148532
v 0.00998357 0.0075 -0.0123136
v 0.00822021 0.0075 -0.0147406
v 0.00792705 0.0075 -0.0148532
v 0.00876336 0.0075 -0.0144271
v 0.0085 0.0075 -0.0145981
v 0.00985317 0.0075 -0.0129271
v -0.007 0.0075 -0.015
v -0.00985317 0.0075 -0.0129271
v -0.00993444 0.0075 -0.0126237
v -0.00959808 0.0075 -0.0135
v -0.00974064 0.0075 -0.0132202
v -0.00922943 0.0075 -0.0140074
v -0.00942705 0.0075 -0.0137634
v -0.00876336 0.0075 -0.0144271
v -0.00900739 0.0075 -0.0142294
v -0.00822021 0.0075 -0.0147406
v -0.00731359 0.0075 -0.0149836
v 0.00762374 0.0075 -0.0149344
v 0.00731359 0.0075 -0.0149836
v 0.00922943 0.0075 -0.0140074
v 0.00993444 0.0075 -0.0126237
v -0.00998357 0.0075 -0.0123136
v 0.007 0.0075 -0.015
v 0.00900739 0 -0.0142294
v 0.00942705 0 -0.0137634
v 0.00959808 0 -0.0135
v 0.00922943 0 -0.0140074
v -0.0085 0 -0.0145981
v -0.00762374 0 -0.0149344
v -0.00731359 0 -0.0149836
v -0.00822021 0 -0.0147406
v -0.00792705 0 -0.0148532
v 0.00974064 0 -0.0132202
v 0.00998357 0 -0.0123136
v 0.00822021 0 -0.0147406
v 0.0085 0 -0.0145981
v 0.00762374 0 -0.0149344
v 0.00792705 0 -0.0148532
v -0.007 -8.47033e-22 -0.015
v -0.00922943 0 -0.0140074
v -0.00900739 0 -0.0142294
v -0.00959808 0 -0.0135
v -0.00942705 0 -0.0137634
v -0.00985317 0 -0.0129271
v -0.00974064 0 -0.0132202
v -0.00998357 0 -0.0123136
v -0.00993444 0 -0.0126237
v 0.00876336 0 -0.0144271
v 0.00985317 0 -0.0129271
v 0.00993444 0 -0.0126237
v 0.007 -8.47033e-22 -0.015
v 0.00731359 0 -0.0149836
v -0.00876336 0 -0.0144271
vn -1 0 -1.83697e-16
vn -0.995785 0 0.0917196
vn -0.983175 0 0.182666
vn -0.962277 0 0.272072
vn -0.933266 0 0.359185
vn -0.892617 0 0.450815
vn -0.842999 0 0.537915
vn -0.78491 0 0.619609
vn -0.718934 0 0.695078
vn -0.645734 0 0.763562
vn -0.566045 0 0.824374
vn -0.480669 0 0.876902
vn -0.390462 0 0.920619
vn -0.296333 0 0.955085
vn -0.199225 0 0.979954
vn -0.100115 0 0.994976
vn -2.44929e-16 0 1
vn 0.100115 0 0.994976
vn 0.199225 0 0.979954
vn 0.296333 0 0.955085
vn 0.390462 0 0.920619
vn 0.480669 0 0.876902
vn 0.566045 0 0.824374
vn 0.645734 0 0.763562
vn 0.718934 0 0.695078
vn 0.78491 0 0.619609
vn 0.842999 0 0.537915
vn 0.892617 0 0.450815
vn 0.933266 0 0.359185
vn 0.966463 0 0.256807
vn 0.988464 0 0.151455
vn 0.999016 0 0.0443482
vn 0.997996 0 -0.0632722
vn 0.985416 0 -0.17016
vn 0.961422 0 -0.275076
vn 0.926292 0 -0.376807
vn 0.880432 0 -0.474172
vn 0.824374 0 -0.566045
vn 0.758767 0 -0.651362
vn 0.684371 0 -0.729134
vn 0.602048 0 -0.79846
vn 0.512751 0 -0.858537
vn 0.417515 0 -0.90867
vn 0.317443 0 -0.948277
vn 0.213694 0 -0.976901
vn 0.107469 0 -0.994208
vn 1.22465e-16 0 -1
vn 0.0941079 0 -0.995562
vn 0.18738 0 -0.982287
vn 0.27899 0 -0.960294
vn 0.368123 0 -0.929777
vn 0.453988 0 -0.891008
vn 0.535824 0 -0.844329
vn 0.617858 0 -0.78629
vn 0.693652 0 -0.720311
vn 0.762441 0 -0.647057
vn 0.823532 0 -0.56727
vn 0.876306 0 -0.481755
vn 0.920231 0 -0.391375
vn 0.954864 0 -0.297042
vn 0.979855 0 -0.199711
vn 0.994951 0 -0.100362
vn 1 0 1.83697e-16
vn 0 -1 0
vn 0 0 1
vn 0.104528 0 0.994522
vn 0.207912 0 0.978148
vn 0.309017 0 0.951057
vn 0.406737 0 0.913545
vn 0.5 0 0.866025
vn 0.587785 0 0.809017
vn 0.669131 0 0.743145
vn 0.743145 0 0.669131
vn 0.809017 0 0.587785
vn 0.866025 0 0.5
vn 0.913545 0 0.406737
vn 0.951057 0 0.309017
vn 0.978148 0 0.207912
vn 0.994522 0 0.104528
vn 1 0 6.12323e-17
vn 0 0 1
vn -1 0 -1.83697e-16
vn -0.994522 0 0.104528
vn -0.978148 0 0.207912
vn -0.951057 0 0.309017
vn -0.913545 0 0.406737
vn -0.866025 0 0.5
vn -0.809017 0 0.587785
vn -0.743145 0 0.669131
vn -0.669131 0 0.743145
vn -0.587785 0 0.809017
vn -0.5 0 0.866025
vn -0.406737 0 0.913545
vn -0.309017 0 0.951057
vn -0.207912 0 0.978148
vn -0.104528 0 0.994522
vn -2.44929e-16 0 1
vn 1 0 0
vn -1 0 0
vn 0 1 0
vn 0 -1 0
vn 1 0 6.12323e-17
vn 0.994522 0 -0.104528
vn 0.978148 0 -0.207912
vn 0.951057 0 -0.309017
vn 0.913545 0 -0.406737
vn 0.866025 0 -0.5
vn 0.809017 0 -0.587785
vn 0.743145 0 -0.669131
vn 0.669131 0 -0.743145
vn 0.587785 0 -0.809017
vn 0.5 0 -0.866025
vn 0.406737 0 -0.913545
vn 0.309017 0 -0.951057
vn 0.207912 0 -0.978148
vn 0.104528 0 -0.994522
vn 1.22465e-16 0 -1
vn -0.104528 0 -0.994522
vn -0.207912 0 -0.978148
vn -0.309017 0 -0.951057
vn -0.406737 0 -0.913545
vn -0.5 0 -0.866025
vn -0.587785 0 -0.809017
vn -0.669131 0 -0.743145
vn -0.743145 0 -0.669131
vn -0.809017 0 -0.587785
vn -0.866025 0 -0.5
vn -0.913545 0 -0.406737
vn -0.951057 0 -0.309017
vn -0.978148 0 -0.207912
vn -0.994522 0 -0.104528
vn -1 0 -1.83697e-16
usemtl 0.647059_0.647059_0.647059_0.000000_0.000000
f 1//1 2//1 3//2
f 4//2 3//2 5//3
f 6//3 5//3 7//4
f 8//4 7//4 9//5
f 9//5 10//5 8//4
f 7//4 8//4 6//3
f 5//3 6//3 4//2
f 3//2 4//2 1//1
f 11//5 10//5 9//5
f 9//5 12//5 11//5
f 11//5 12//5 13//6
f 14//6 13//6 15//7
f 16//7 15//7 17//8
f 18//8 17//8 19//9
f 20//9 19//9 21//10
f 22//10 21//10 23//11
f 24//11 23//11 25//12
f 26//12 25//12 27//13
f 28//13 27//13 29//14
f 30//14 29//14 31//15
f 32//15 31//15 33//16
f 34//16 33//16 35//17
f 35//17 36//17 34//16
f 33//16 34//16 32//15
f 31//15 32//15 30//14
f 29//14 30//14 28//13
f 27//13 28//13 26//12
f 25//12 26//12 24//11
f 23//11 24//11 22//10
f 21//10 22//10 20//9
f 19//9 20//9 18//8
f 17//8 18//8 16//7
f 15//7 16//7 14//6
f 13//6 14//6 11//5
f 37//17 36//17 35//17
f 35//17 38//17 37//17
f 37//17 38//17 39//18
f 40//18 39//18 41//19
f 42//19 41//19 43//20
f 44//20 43//20 45//21
f 46//21 45//21 47//22
f 48//22 47//22 49//23
f 50//23 49//23 51//24
f 52//24 51//24 53//25
f 54//25 53//25 55//26
f 56//26 55//26 57//27
f 58//27 57//27 59//28
f 60//28 59//28 61//29
f 61//29 62//29 60//28
f 59//28 60//28 58//27
f 57//27 58//27 56//26
f 55//26 56//26 54//25
f 53//25 54//25 52//24
f 51//24 52//24 50//23
f 49//23 50//23 48//22
f 47//22 48//22 46//21
f 45//21 46//21 44//20
f 43//20 44//20 42//19
f 41//19 42//19 40//18
f 39//18 40//18 37//17
f 61//29 63//29 64//29
f 64//29 62//29 61//29
f 64//29 63//29 65//30
f 66//30 65//30 67//31
f 68//31 67//31 69//32
f 70//32 69//32 71//33
f 72//33 71//33 73//34
f 74//34 73//34 75//35
f 76//35 75//35 77//36
f 78//36 77//36 79//37
f 80//37 79//37 81//38
f 82//38 81//38 83//39
f 84//39 83//39 85//40
f 86//40 85//40 87//41
f 88//41 87//41 89//42
f 90//42 89//42 91//43
f 92//43 91//43 93//44
f 94//44 93//44 95//45
f 96//45 95//45 97//46
f 98//46 97//46 99//47
f 99//47 100//47 98//46
f 97//46 98//46 96//45
f 95//45 96//45 94//44
f 93//44 94//44 92//43
f 91//43 92//43 90//42
f 89//42 90//42 88//41
f 87//41 88//41 86//40
f 85//40 86//40 84//39
f 83//39 84//39 82//38
f 81//38 82//38 80//37
f 79//37 80//37 78//36
f 77//36 78//36 76//35
f 75//35 76//35 74//34
f 73//34 74//34 72//33
f 71//33 72//33 70//32
f 69//32 70//32 68//31
f 67//31 68//31 66//30
f 65//30 66//30 64//29
f 100//47 99//47 101//47
f 101//47 102//47 100//47
f 103//48 102//47 101//47
f 104//49 103//48 105//48
f 106//50 104//49 107//49
f 108//51 106//50 109//50
f 110//52 108//51 111//51
f 112//53 110//52 113//52
f 113//52 114//53 112//53
f 111//51 113//52 110//52
f 109//50 111//51 108//51
f 107//49 109//50 106//50
f 105//48 107//49 104//49
f 101//47 105//48 103//48
f 114//53 115//53 116//53
f 116//53 112//53 114//53
f 117//54 116//53 115//53
f 118//55 117//54 119//54
f 120//56 118//55 121//55
f 122//57 120//56 123//56
f 124//58 122//57 125//57
f 126//59 124//58 127//58
f 128//60 126//59 129//59
f 130//61 128//60 131//60
f 132//62 130//61 133//61
f 134//63 132//62 135//62
f 135//62 136//63 134//63
f 133//61 135//62 132//62
f 131//60 133//61 130//61
f 129//59 131//60 128//60
f 127//58 129//59 126//59
f 125//57 127//58 124//58
f 123//56 125//57 122//57
f 121//55 123//56 120//56
f 119//54 121//55 118//55
f 115//53 119//54 117//54
f 105//64 65//64 63//64
f 61//64 107//64 105//64
f 79//64 105//64 101//64
f 63//64 61//64 105//64
f 101//64 81//64 79//64
f 105//64 67//64 65//64
f 137//64 23//64 21//64
f 137//64 27//64 25//64
f 101//64 83//64 81//64
f 105//64 69//64 67//64
f 138//64 45//64 43//64
f 137//64 13//64 12//64
f 25//64 23//64 137//64
f 137//64 31//64 29//64
f 101//64 85//64 83//64
f 105//64 71//64 69//64
f 138//64 47//64 45//64
f 138//64 55//64 53//64
f 137//64 15//64 13//64
f 137//64 19//64 17//64
f 29//64 27//64 137//64
f 137//64 35//64 33//64
f 93//64 99//64 97//64
f 101//64 93//64 91//64
f 101//64 87//64 85//64
f 105//64 73//64 71//64
f 138//64 39//64 38//64
f 138//64 49//64 47//64
f 53//64 51//64 138//64
f 17//64 15//64 137//64
f 33//64 31//64 137//64
f 93//64 101//64 99//64
f 101//64 89//64 87//64
f 105//64 75//64 73//64
f 138//64 41//64 39//64
f 51//64 49//64 138//64
f 21//64 19//64 137//64
f 91//64 89//64 101//64
f 105//64 77//64 75//64
f 43//64 41//64 138//64
f 138//64 59//64 57//64
f 12//64 139//64 140//64
f 141//64 125//64 123//64
f 141//64 136//64 135//64
f 105//64 79//64 77//64
f 138//64 109//64 107//64
f 138//64 113//64 111//64
f 138//64 142//64 114//64
f 57//64 55//64 138//64
f 12//64 140//64 137//64
f 123//64 121//64 141//64
f 141//64 131//64 129//64
f 135//64 133//64 141//64
f 107//64 61//64 138//64
f 114//64 113//64 138//64
f 138//64 61//64 59//64
f 35//64 143//64 144//64
f 137//64 145//64 35//64
f 146//64 3//64 2//64
f 114//64 142//64 141//64
f 141//64 127//64 125//64
f 133//64 131//64 141//64
f 111//64 109//64 138//64
f 38//64 147//64 148//64
f 38//64 149//64 150//64
f 144//64 38//64 35//64
f 12//64 151//64 139//64
f 9//64 152//64 153//64
f 146//64 5//64 3//64
f 141//64 119//64 115//64
f 129//64 127//64 141//64
f 38//64 148//64 138//64
f 38//64 154//64 149//64
f 38//64 155//64 156//64
f 144//64 157//64 38//64
f 12//64 158//64 151//64
f 153//64 12//64 9//64
f 146//64 7//64 5//64
f 2//64 159//64 160//64
f 121//64 119//64 141//64
f 38//64 161//64 147//64
f 156//64 154//64 38//64
f 145//64 143//64 35//64
f 9//64 162//64 152//64
f 162//64 9//64 7//64
f 2//64 163//64 164//64
f 160//64 165//64 2//64
f 97//64 95//64 93//64
f 157//64 155//64 38//64
f 7//64 146//64 162//64
f 165//64 163//64 2//64
f 150//64 161//64 38//64
f 2//64 164//64 146//64
f 153//64 158//64 12//64
f 2//64 166//64 167//64
f 167//64 159//64 2//64
f 2//64 168//64 166//64
f 141//64 115//64 114//64
f 137//65 169//65 170//66
f 145//66 170//66 171//67
f 143//67 171//67 172//68
f 144//68 172//68 173//69
f 157//69 173//69 174//70
f 155//70 174//70 175//71
f 156//71 175//71 176//72
f 154//72 176//72 177//73
f 149//73 177//73 178//74
f 150//74 178//74 179//75
f 161//75 179//75 180//76
f 147//76 180//76 181//77
f 148//77 181//77 182//78
f 138//78 182//78 183//79
f 142//79 183//79 184//80
f 184//80 141//80 142//79
f 183//79 142//79 138//78
f 182//78 138//78 148//77
f 181//77 148//77 147//76
f 180//76 147//76 161//75
f 179//75 161//75 150//74
f 178//74 150//74 149//73
f 177//73 149//73 154//72
f 176//72 154//72 156//71
f 175//71 156//71 155//70
f 174//70 155//70 157//69
f 173//69 157//69 144//68
f 172//68 144//68 143//67
f 171//67 143//67 145//66
f 170//66 145//66 137//65
f 140//81 185//81 169//81
f 169//81 137//81 140//81
f 168//82 186//82 187//83
f 166//83 187//83 188//84
f 167//84 188//84 189//85
f 159//85 189//85 190//86
f 160//86 190//86 191//87
f 165//87 191//87 192//88
f 163//88 192//88 193//89
f 164//89 193//89 194//90
f 146//90 194//90 195//91
f 162//91 195//91 196//92
f 152//92 196//92 197//93
f 153//93 197//93 198//94
f 158//94 198//94 199//95
f 151//95 199//95 200//96
f 139//96 200//96 185//97
f 185//97 140//97 139//96
f 200//96 139//96 151//95
f 199//95 151//95 158//94
f 198//94 158//94 153//93
f 197//93 153//93 152//92
f 196//92 152//92 162//91
f 195//91 162//91 146//90
f 194//90 146//90 164//89
f 193//89 164//89 163//88
f 192//88 163//88 165//87
f 191//87 165//87 160//86
f 190//86 160//86 159//85
f 189//85 159//85 167//84
f 188//84 167//84 166//83
f 187//83 166//83 168//82
f 184//98 201//98 136//98
f 202//98 134//98 136//98
f 136//98 201//98 202//98
f 136//98 141//98 184//98
f 1//99 203//99 168//99
f 204//99 186//99 168//99
f 168//99 203//99 204//99
f 168//99 2//99 1//99
f 82//100 92//100 94//100
f 90//100 82//100 84//100
f 94//100 96//100 82//100
f 84//100 86//100 90//100
f 96//100 98//100 82//100
f 86//100 88//100 90//100
f 100//100 78//100 80//100
f 100//100 72//100 74//100
f 100//100 66//100 68//100
f 102//100 58//100 60//100
f 116//100 20//100 22//100
f 90//100 92//100 82//100
f 100//100 76//100 78//100
f 100//100 70//100 72//100
f 100//100 64//100 66//100
f 102//100 56//100 58//100
f 102//100 52//100 54//100
f 22//100 24//100 116//100
f 80//100 82//100 100//100
f 68//100 70//100 100//100
f 54//100 56//100 102//100
f 102//100 48//100 50//100
f 102//100 40//100 42//100
f 205//100 206//100 207//100
f 24//100 26//100 116//100
f 116//100 34//100 36//100
f 74//100 76//100 100//100
f 50//100 52//100 102//100
f 42//100 44//100 102//100
f 207//100 208//100 205//100
f 116//100 18//100 20//100
f 116//100 117//100 11//100
f 116//100 32//100 34//100
f 116//100 28//100 30//100
f 98//100 100//100 82//100
f 102//100 46//100 48//100
f 102//100 37//100 40//100
f 209//100 210//100 211//100
f 212//100 213//100 214//100
f 212//100 215//100 216//100
f 205//100 217//100 206//100
f 116//100 16//100 18//100
f 11//100 14//100 116//100
f 30//100 32//100 116//100
f 102//100 62//100 64//100
f 44//100 46//100 102//100
f 218//100 219//100 220//100
f 218//100 221//100 222//100
f 218//100 223//100 224//100
f 218//100 225//100 226//100
f 211//100 227//100 209//100
f 225//100 218//100 228//100
f 212//100 229//100 230//100
f 216//100 213//100 212//100
f 208//100 231//100 205//100
f 215//100 212//100 232//100
f 14//100 16//100 116//100
f 36//100 110//100 112//100
f 37//100 102//100 103//100
f 60//100 62//100 102//100
f 222//100 219//100 218//100
f 226//100 223//100 218//100
f 228//100 210//100 225//100
f 214//100 229//100 212//100
f 232//100 217//100 215//100
f 36//100 112//100 116//100
f 100//100 102//100 64//100
f 220//100 233//100 218//100
f 209//100 225//100 210//100
f 205//100 215//100 217//100
f 36//100 108//100 110//100
f 103//100 36//100 37//100
f 224//100 221//100 218//100
f 134//100 234//100 218//100
f 234//100 202//100 212//100
f 36//100 106//100 108//100
f 103//100 104//100 36//100
f 218//100 203//100 134//100
f 234//100 134//100 202//100
f 1//100 124//100 126//100
f 122//100 124//100 1//100
f 104//100 106//100 36//100
f 230//100 234//100 212//100
f 203//100 1//100 132//100
f 1//100 128//100 130//100
f 1//100 4//100 122//100
f 120//100 6//100 8//100
f 120//100 122//100 4//100
f 118//100 120//100 10//100
f 26//100 28//100 116//100
f 132//100 134//100 203//100
f 126//100 128//100 1//100
f 4//100 6//100 120//100
f 117//100 118//100 11//100
f 130//100 132//100 1//100
f 10//100 11//100 118//100
f 8//100 10//100 120//100
f 233//100 203//100 218//100
f 235//101 236//101 237//101
f 175//101 172//101 171//101
f 235//101 238//101 236//101
f 239//101 240//101 241//101
f 239//101 242//101 243//101
f 191//101 199//101 198//101
f 171//101 170//101 175//101
f 175//101 174//101 173//101
f 169//101 180//101 179//101
f 237//101 244//101 235//101
f 245//101 246//101 247//101
f 245//101 248//101 249//101
f 243//101 240//101 239//101
f 250//101 251//101 252//101
f 250//101 253//101 254//101
f 250//101 255//101 256//101
f 250//101 257//101 258//101
f 193//101 196//101 195//101
f 191//101 200//101 199//101
f 173//101 172//101 175//101
f 169//101 177//101 176//101
f 169//101 181//101 180//101
f 259//101 260//101 261//101
f 260//101 259//101 235//101
f 249//101 246//101 245//101
f 245//101 262//101 263//101
f 250//101 264//101 239//101
f 254//101 251//101 250//101
f 258//101 255//101 250//101
f 185//101 189//101 188//101
f 185//101 191//101 190//101
f 195//101 194//101 193//101
f 191//101 185//101 200//101
f 176//101 175//101 169//101
f 179//101 178//101 169//101
f 244//101 260//101 235//101
f 263//101 248//101 245//101
f 252//101 264//101 250//101
f 250//101 204//101 257//101
f 190//101 189//101 185//101
f 193//101 192//101 196//101
f 198//101 197//101 191//101
f 178//101 177//101 169//101
f 169//101 183//101 182//101
f 247//101 259//101 245//101
f 256//101 253//101 250//101
f 250//101 185//101 186//101
f 188//101 187//101 185//101
f 197//101 196//101 191//101
f 182//101 181//101 169//101
f 262//101 201//101 184//101
f 261//101 245//101 259//101
f 186//101 204//101 250//101
f 192//101 191//101 196//101
f 169//101 184//101 183//101
f 245//101 201//101 262//101
f 169//101 185//101 250//101
f 187//101 186//101 185//101
f 184//101 169//101 262//101
f 241//101 250//101 239//101
f 250//101 262//101 169//101
f 170//101 169//101 175//101
f 202//102 201//102 245//103
f 212//103 245//103 261//104
f 232//104 261//104 260//105
f 217//105 260//105 244//106
f 206//106 244//106 237//107
f 207//107 237//107 236//108
f 208//108 236//108 238//109
f 231//109 238//109 235//110
f 205//110 235//110 259//111
f 215//111 259//111 247//112
f 216//112 247//112 246//113
f 213//113 246//113 249//114
f 214//114 249//114 248//115
f 229//115 248//115 263//116
f 230//116 263//116 262//117
f 262//117 234//117 230//116
f 263//116 230//116 229//115
f 248//115 229//115 214//114
f 249//114 214//114 213//113
f 246//113 213//113 216//112
f 247//112 216//112 215//111
f 259//111 215//111 205//110
f 235//110 205//110 231//109
f 238//109 231//109 208//108
f 236//108 208//108 207//107
f 237//107 207//107 206//106
f 244//106 206//106 217//105
f 260//105 217//105 232//104
f 261//104 232//104 212//103
f 245//103 212//103 202//102
f 218//117 234//117 262//117
f 262//117 250//117 218//117
f 218//117 250//117 241//118
f 228//118 241//118 240//119
f 210//119 240//119 243//120
f 211//120 243//120 242//121
f 227//121 242//121 239//122
f 209//122 239//122 264//123
f 225//123 264//123 252//124
f 226//124 252//124 251//125
f 223//125 251//125 254//126
f 224//126 254//126 253//127
f 221//127 253//127 256//128
f 222//128 256//128 255//129
f 219//129 255//129 258//130
f 220//130 258//130 257//131
f 233//131 257//131 204//132
f 204//132 203//132 233//131
f 257//131 233//131 220//130
f 258//130 220//130 219//129
f 255//129 219//129 222//128
f 256//128 222//128 221//127
f 253//127 221//127 224//126
f 254//126 224//126 223//125
f 251//125 223//125 226//124
f 252//124 226//124 225//123
f 264//123 225//123 209//122
f 239//122 209//122 227//121
f 242//121 227//121 211//120
f 243//120 211//120 210//119
f 240//119 210//119 228//118
f 241//118 228//118 218//117
